<svg width="22" height="15" viewBox="0 0 22 15" fill="none" xmlns="http://www.w3.org/2000/svg">
<path id="Vector" fill-rule="evenodd" clip-rule="evenodd" d="M17.9932 0.156992L11.0072 0L4.0211 0.156992C3.39316 0.171171 2.7893 0.400568 2.31124 0.806549C1.83317 1.21253 1.51011 1.77029 1.39646 2.38588C0.830738 5.45318 0.830738 8.59756 1.39646 11.6649C1.51015 12.2806 1.83335 12.8385 2.31161 13.2445C2.78988 13.6505 3.39396 13.8798 4.02207 13.8937L11.0072 14.0517L17.9932 13.8947C18.6212 13.8805 19.225 13.6511 19.7031 13.2452C20.1812 12.8392 20.5042 12.2814 20.6179 11.6658C21.1829 8.59771 21.1829 5.454 20.6179 2.38685C20.5042 1.7711 20.181 1.21322 19.7027 0.807217C19.2245 0.401218 18.6204 0.17192 17.9923 0.157961L17.9932 0.156992ZM4.05416 1.61062L11.0072 1.45363L17.9602 1.61062C18.5631 1.62418 19.0736 2.05736 19.1825 2.64947C19.3323 3.45769 19.4393 4.27172 19.5054 5.08769H2.50797C2.57391 4.27001 2.68167 3.45621 2.83082 2.64947C2.88375 2.36253 3.03432 2.10254 3.25715 1.91331C3.47999 1.72408 3.76147 1.61718 4.05416 1.61062ZM2.43114 7.02585C2.43114 8.49111 2.56437 9.95539 2.83179 11.4022C2.94071 11.9934 3.45124 12.4275 4.05416 12.4411L11.0072 12.5981L17.9602 12.4411C18.2527 12.4343 18.5339 12.3273 18.7566 12.1381C18.9792 11.9489 19.1296 11.689 19.1825 11.4022C19.45 9.95539 19.5832 8.49111 19.5832 7.02585H2.43114Z" fill="white"/>
</svg>
