<svg width="54" height="50" viewBox="0 0 54 50" fill="none" xmlns="http://www.w3.org/2000/svg">
<path d="M12.1516 0V4.17871C13.8303 5.33839 14.9088 7.51976 14.9088 9.91214C14.9088 11.422 14.4786 12.8471 13.74 13.9853C14.1222 14.134 14.5237 14.2992 14.8594 14.4448L28.3526 11.9357L29.0052 17.9755L16.6815 20.5326C16.5864 22.3235 16.4113 24.0857 16.0982 26.2117H53.1767V0H12.1516ZM9.39473 5.2863C7.56461 5.2863 5.8655 7.24079 5.8655 9.91225C5.8655 12.5837 7.56461 14.538 9.39473 14.538C11.2249 14.538 12.924 12.5837 12.924 9.91225C12.924 7.24079 11.2249 5.2863 9.39473 5.2863ZM26.6092 14.2762L14.6335 16.503C13.0631 15.8861 14.087 16.1688 12.2659 15.5651C11.4414 16.1674 10.465 16.5201 9.39473 16.5201C8.44631 16.5201 7.57178 16.2423 6.81106 15.7602C5.86374 16.1527 4.86404 16.6512 3.97285 17.1538C2.54007 17.962 1.35675 18.6088 0.902832 18.9195V33.2601H3.1089V21.0353H5.09353V50H8.40242V31.3876H10.387V50H13.2548V31.0751L13.2718 30.9843C14.321 25.4073 14.66 22.4619 14.7563 18.9078L26.8387 16.4005L26.6092 14.2762ZM15.7848 28.194C15.6798 28.8198 15.5652 29.476 15.4378 30.1759H51.5223V28.194H15.7848ZM21.7463 33.4799C19.9161 33.4799 18.217 35.4344 18.217 38.1058C18.217 40.11 19.1732 41.7104 20.4238 42.385C20.8207 42.2019 21.2489 42.087 21.7119 42.071C22.2228 42.0534 22.7022 42.1555 23.1513 42.3375C24.3608 41.638 25.2755 40.0655 25.2755 38.1058C25.2755 35.4344 23.5764 33.4799 21.7463 33.4799ZM34.0978 33.4799C32.2677 33.4799 30.5686 35.4344 30.5686 38.1058C30.5686 40.11 31.5247 41.7104 32.7753 42.385C33.1722 42.2019 33.6004 42.087 34.0634 42.071C34.5743 42.0534 35.0537 42.1555 35.5028 42.3375C36.7124 41.638 37.627 40.0655 37.627 38.1058C37.627 35.4344 35.9279 33.4799 34.0978 33.4799ZM46.4493 33.4799C44.6192 33.4799 42.9201 35.4344 42.9201 38.1058C42.9201 40.11 43.8762 41.7104 45.1268 42.385C45.5237 42.2019 45.952 42.087 46.4149 42.071C46.9259 42.0534 47.4053 42.1555 47.8543 42.3375C49.0639 41.638 49.9786 40.0655 49.9786 38.1058C49.9786 35.4344 48.2795 33.4799 46.4493 33.4799ZM21.7807 44.052C21.3568 44.0667 20.7984 44.3747 20.2036 45.0195C19.6088 45.6644 19.0241 46.5889 18.5356 47.5261C18.0696 48.4204 17.6965 49.3058 17.4262 50H26.8375C26.5023 49.2912 26.0503 48.3977 25.4995 47.4988C24.9152 46.5453 24.23 45.6114 23.551 44.9705C22.872 44.3297 22.2497 44.0358 21.7807 44.052ZM34.1322 44.052C33.7083 44.0667 33.1499 44.3747 32.5552 45.0195C31.9603 45.6644 31.3756 46.5889 30.8872 47.5261C30.4211 48.4204 30.048 49.3058 29.7777 50H39.1891C38.8538 49.2912 38.4019 48.3977 37.851 47.4988C37.2667 46.5453 36.5816 45.6114 35.9026 44.9705C35.2236 44.3297 34.6011 44.0358 34.1322 44.052ZM46.4837 44.052C46.0598 44.0667 45.5015 44.3747 44.9067 45.0195C44.3119 45.6644 43.7271 46.5889 43.2387 47.5261C42.7727 48.4204 42.3996 49.3058 42.1293 50H51.5406C51.2053 49.2912 50.7534 48.3977 50.2025 47.4988C49.6183 46.5453 48.9331 45.6114 48.2541 44.9705C47.5751 44.3297 46.9527 44.0358 46.4837 44.052Z" fill="white"/>
</svg>
