<svg width="43" height="50" viewBox="0 0 43 50" fill="none" xmlns="http://www.w3.org/2000/svg">
<path id="Vector" d="M42.3279 1.92308V40.3846C42.3279 40.8946 42.1255 41.3838 41.7654 41.7444C41.4052 42.1051 40.9167 42.3077 40.4074 42.3077H7.7585C6.73979 42.3077 5.76281 42.7129 5.04247 43.4342C4.32214 44.1555 3.91746 45.1338 3.91746 46.1538H36.5663C37.0757 46.1538 37.5642 46.3565 37.9243 46.7171C38.2845 47.0777 38.4868 47.5669 38.4868 48.0769C38.4868 48.587 38.2845 49.0761 37.9243 49.4367C37.5642 49.7974 37.0757 50 36.5663 50H1.99694C1.48758 50 0.999091 49.7974 0.638924 49.4367C0.278756 49.0761 0.076416 48.587 0.076416 48.0769V7.69231C0.076416 5.65218 0.885776 3.69561 2.32645 2.25302C3.76712 0.810437 5.72108 0 7.7585 0H40.4074C40.9167 0 41.4052 0.202609 41.7654 0.563256C42.1255 0.923903 42.3279 1.41305 42.3279 1.92308Z" fill="white"/>
</svg>
