<svg width="50" height="50" viewBox="0 0 50 50" fill="none" xmlns="http://www.w3.org/2000/svg">
<g id="fluent:learning-app-20-filled" clip-path="url(#clip0_1_4088)">
<path id="Vector" d="M11.8824 0C10.3223 0 8.82606 0.619746 7.7229 1.7229C6.61975 2.82606 6 4.32226 6 5.88235V41.1765C6 42.7366 6.61975 44.2328 7.7229 45.3359C8.82606 46.4391 10.3223 47.0588 11.8824 47.0588H24.4029C23.6538 46.1516 23.0059 45.1654 22.4706 44.1176H11.8824C11.1023 44.1176 10.3542 43.8078 9.80263 43.2562C9.25105 42.7046 8.94118 41.9565 8.94118 41.1765H21.3147C20.5281 38.4057 20.4955 35.4752 21.2203 32.6877C21.9452 29.9002 23.4011 27.3567 25.4377 25.3201C27.4743 23.2834 30.0178 21.8275 32.8053 21.1027C35.5929 20.3779 38.5234 20.4104 41.2941 21.1971V5.88235C41.2941 4.32226 40.6744 2.82606 39.5712 1.7229C38.4681 0.619746 36.9719 0 35.4118 0H11.8824ZM14.0882 7.35294H33.2059C33.7909 7.35294 34.352 7.58535 34.7657 7.99903C35.1794 8.41271 35.4118 8.97379 35.4118 9.55882C35.4118 10.1439 35.1794 10.7049 34.7657 11.1186C34.352 11.5323 33.7909 11.7647 33.2059 11.7647H14.0882C13.5032 11.7647 12.9421 11.5323 12.5284 11.1186C12.1148 10.7049 11.8824 10.1439 11.8824 9.55882C11.8824 8.97379 12.1148 8.41271 12.5284 7.99903C12.9421 7.58535 13.5032 7.35294 14.0882 7.35294ZM50.1176 36.7647C50.1176 40.2749 48.7232 43.6414 46.2411 46.1235C43.759 48.6056 40.3926 50 36.8824 50C33.3721 50 30.0057 48.6056 27.5236 46.1235C25.0415 43.6414 23.6471 40.2749 23.6471 36.7647C23.6471 33.2545 25.0415 29.888 27.5236 27.4059C30.0057 24.9238 33.3721 23.5294 36.8824 23.5294C40.3926 23.5294 43.759 24.9238 46.2411 27.4059C48.7232 29.888 50.1176 33.2545 50.1176 36.7647ZM35.4706 30.9824C35.2799 30.8514 35.0583 30.7724 34.8277 30.7534C34.5971 30.7343 34.3655 30.7757 34.1559 30.8735C33.9848 30.9488 33.8299 31.0567 33.7 31.1912C33.426 31.4719 33.2729 31.8489 33.2735 32.2412V41.2853C33.2717 41.4802 33.3085 41.6736 33.3817 41.8543C33.4549 42.035 33.563 42.1995 33.7 42.3382C33.8343 42.4717 33.9904 42.5812 34.1618 42.6618C34.4602 42.7985 34.7988 42.8195 35.1118 42.7206C35.2473 42.6759 35.376 42.6126 35.4941 42.5324L42.2471 37.9235C42.4525 37.7882 42.6181 37.6003 42.7265 37.3794C42.8382 37.1569 42.8957 36.9111 42.8941 36.6622C42.8926 36.4132 42.8321 36.1682 42.7176 35.9471C42.6026 35.7294 42.4335 35.545 42.2265 35.4118L35.4706 30.9824Z" fill="white"/>
</g>
<defs>
<clipPath id="clip0_1_4088">
<rect width="50" height="50" fill="white"/>
</clipPath>
</defs>
</svg>
