<svg width="50" height="50" viewBox="0 0 50 50" fill="none" xmlns="http://www.w3.org/2000/svg">
<g clip-path="url(#clip0_1_4096)">
<path d="M48.47 1.0125C48.325 0.651279 48.0462 0.359882 47.6918 0.198929C47.3374 0.0379758 46.9346 0.0198594 46.5672 0.148348C46.1997 0.276837 45.896 0.542038 45.7191 0.888781C45.5422 1.23552 45.5058 1.63711 45.6175 2.01C47.94 8.685 43.33 13.67 39.815 16.34L38.395 14.305C37.9175 13.6225 36.85 13.055 36.02 13.045L28.05 13.08C27.0764 13.1094 26.1288 13.4014 25.3075 13.925L1.8225 30.3925C1.27623 30.7769 0.904545 31.3621 0.788811 32.02C0.673076 32.6778 0.822727 33.3547 1.205 33.9025L11.8775 49.1725C12.6775 50.31 13.955 50.1725 15.095 49.3775L38.58 32.9075C39.255 32.43 40.035 31.4 40.31 30.6125L42.805 22.75C43.08 21.965 42.9125 20.7675 42.435 20.085L41.57 18.845C46.29 15.2275 51.19 8.835 48.47 1.0125ZM37.5425 24.4075C37.1098 24.7103 36.6218 24.925 36.1061 25.0391C35.5905 25.1533 35.0574 25.1647 34.5374 25.0728C34.0173 24.9808 33.5205 24.7873 33.0752 24.5033C32.63 24.2193 32.2451 23.8503 31.9425 23.4175C31.3298 22.5416 31.0897 21.4585 31.2748 20.4057C31.46 19.353 32.0553 18.4168 32.93 17.8025C33.6158 17.322 34.4345 17.0679 35.2718 17.0755C36.1091 17.0831 36.9231 17.3521 37.6 17.845C36.92 18.255 36.4525 18.495 36.365 18.5325C36.0551 18.6803 35.8046 18.9289 35.6545 19.2377C35.5044 19.5465 35.4636 19.8971 35.5389 20.232C35.6141 20.567 35.8009 20.8665 36.0686 21.0814C36.3364 21.2964 36.6692 21.414 37.0125 21.415C37.2275 21.415 37.4475 21.365 37.655 21.2675C38.14 21.0375 38.66 20.765 39.2025 20.4425C39.3273 21.1927 39.2377 21.9628 38.944 22.6643C38.6503 23.3657 38.1645 23.97 37.5425 24.4075Z" fill="white"/>
</g>
<defs>
<clipPath id="clip0_1_4096">
<rect width="50" height="50" fill="white"/>
</clipPath>
</defs>
</svg>
