<svg width="50" height="50" viewBox="0 0 50 50" fill="none" xmlns="http://www.w3.org/2000/svg">
<g id="clarity:close-line" clip-path="url(#clip0_77_4379)">
<path id="Vector" d="M26.9592 25L38.4731 13.4861C38.7006 13.2204 38.8195 12.8786 38.806 12.5291C38.7925 12.1795 38.6476 11.8479 38.4003 11.6006C38.1529 11.3532 37.8213 11.2083 37.4718 11.1948C37.1222 11.1813 36.7805 11.3002 36.5148 11.5278L25.0009 23.0416L13.487 11.5139C13.2255 11.2523 12.8707 11.1054 12.5009 11.1054C12.131 11.1054 11.7763 11.2523 11.5148 11.5139C11.2532 11.7754 11.1063 12.1301 11.1063 12.5C11.1063 12.8698 11.2532 13.2246 11.5148 13.4861L23.0426 25L11.5148 36.5139C11.3694 36.6384 11.2513 36.7916 11.1679 36.9639C11.0846 37.1362 11.0377 37.3239 11.0303 37.5152C11.0229 37.7065 11.0552 37.8972 11.125 38.0754C11.1948 38.2537 11.3007 38.4155 11.4361 38.5509C11.5714 38.6862 11.7333 38.7922 11.9115 38.862C12.0898 38.9318 12.2805 38.964 12.4718 38.9566C12.6631 38.9493 12.8508 38.9024 13.0231 38.819C13.1954 38.7357 13.3486 38.6176 13.4731 38.4722L25.0009 26.9583L36.5148 38.4722C36.7805 38.6997 37.1222 38.8186 37.4718 38.8051C37.8213 38.7916 38.1529 38.6467 38.4003 38.3994C38.6476 38.152 38.7925 37.8204 38.806 37.4709C38.8195 37.1213 38.7006 36.7796 38.4731 36.5139L26.9592 25Z" fill="white"/>
</g>
<defs>
<clipPath id="clip0_77_4379">
<rect width="50" height="50" fill="white"/>
</clipPath>
</defs>
</svg>
