<svg width="36" height="36" viewBox="0 0 36 36" fill="none" xmlns="http://www.w3.org/2000/svg">
<g id="ph:eye">
<path id="Vector" d="M1.22205 17.5444C1.27126 17.4333 2.46236 14.7909 5.11032 12.143C8.63861 8.61469 13.095 6.75 18 6.75C22.905 6.75 27.3614 8.61469 30.8897 12.143C33.5377 14.7909 34.7344 17.4375 34.778 17.5444C34.8419 17.6883 34.875 17.844 34.875 18.0014C34.875 18.1589 34.8419 18.3146 34.778 18.4584C34.7288 18.5695 33.5377 21.2105 30.8897 23.8584C27.3614 27.3853 22.905 29.25 18 29.25C13.095 29.25 8.63861 27.3853 5.11032 23.8584C2.46236 21.2105 1.27126 18.5695 1.22205 18.4584C1.15808 18.3146 1.12503 18.1589 1.12503 18.0014C1.12503 17.844 1.15808 17.6883 1.22205 17.5444ZM18 27C22.3285 27 26.1099 25.4264 29.2402 22.3242C30.5246 21.0469 31.6173 19.5904 32.4844 18C31.6175 16.4094 30.5248 14.9529 29.2402 13.6758C26.1099 10.5736 22.3285 9 18 9C13.6716 9 9.89017 10.5736 6.75986 13.6758C5.47295 14.9526 4.37782 16.4091 3.50861 18C4.52251 19.8928 8.93954 27 18 27ZM18 11.25C19.335 11.25 20.6401 11.6459 21.7501 12.3876C22.8601 13.1293 23.7253 14.1835 24.2362 15.4169C24.7471 16.6503 24.8808 18.0075 24.6203 19.3169C24.3599 20.6262 23.717 21.829 22.773 22.773C21.829 23.717 20.6262 24.3599 19.3169 24.6203C18.0075 24.8808 16.6503 24.7471 15.4169 24.2362C14.1835 23.7253 13.1293 22.8601 12.3876 21.7501C11.6459 20.6401 11.25 19.335 11.25 18C11.2519 16.2104 11.9636 14.4946 13.2291 13.2291C14.4946 11.9636 16.2104 11.2519 18 11.25ZM18 22.5C18.89 22.5 19.7601 22.2361 20.5001 21.7416C21.2401 21.2471 21.8169 20.5443 22.1575 19.7221C22.4981 18.8998 22.5872 17.995 22.4135 17.1221C22.2399 16.2492 21.8113 15.4474 21.182 14.818C20.5527 14.1887 19.7508 13.7601 18.8779 13.5865C18.005 13.4128 17.1002 13.5019 16.2779 13.8425C15.4557 14.1831 14.7529 14.7599 14.2584 15.4999C13.7639 16.24 13.5 17.11 13.5 18C13.5 19.1935 13.9741 20.3381 14.818 21.182C15.6619 22.0259 16.8065 22.5 18 22.5Z" fill="#2989FA"/>
</g>
</svg>
