<svg width="90" height="90" viewBox="0 0 90 90" fill="none" xmlns="http://www.w3.org/2000/svg">
<g id="Group 257">
<rect id="Rectangle 4" width="90" height="90" fill="#2989FA"/>
<path id="Vector" d="M53.0867 49.617L57.3845 53.899L55.9646 55.314L51.6678 51.031C50.069 52.3082 48.0803 53.0029 46.0312 53C41.046 53 37 48.968 37 44C37 39.032 41.046 35 46.0312 35C51.0165 35 55.0625 39.032 55.0625 44C55.0654 46.042 54.3683 48.0237 53.0867 49.617ZM51.0737 48.875C52.3472 47.5699 53.0584 45.8204 53.0556 44C53.0556 40.133 49.9117 37 46.0312 37C42.1508 37 39.0069 40.133 39.0069 44C39.0069 47.867 42.1508 51 46.0312 51C47.858 51.0029 49.6135 50.2941 50.9232 49.025L51.0737 48.875Z" fill="white"/>
</g>
</svg>
