<svg width="14" height="11" viewBox="0 0 14 11" fill="none" xmlns="http://www.w3.org/2000/svg">
<path id="Vector" d="M1.7934 10.5C1.44846 10.5 1.15306 10.3775 0.907212 10.1325C0.661362 9.8875 0.538645 9.59333 0.539064 9.25V1.75C0.539064 1.40625 0.661989 1.11188 0.90784 0.866876C1.15369 0.621876 1.44888 0.499584 1.7934 0.500001H11.8281C12.1731 0.500001 12.4685 0.622501 12.7143 0.867501C12.9602 1.1125 13.0829 1.40667 13.0825 1.75V9.25C13.0825 9.59375 12.9595 9.88813 12.7137 10.1331C12.4678 10.3781 12.1727 10.5004 11.8281 10.5H1.7934ZM6.81076 6.125L11.8281 3V1.75L6.81076 4.875L1.7934 1.75V3L6.81076 6.125Z" fill="white"/>
</svg>
