<svg width="49" height="49" viewBox="0 0 49 49" fill="none" xmlns="http://www.w3.org/2000/svg">
<rect width="49" height="49" transform="matrix(-1 0 0 1 49 0)" fill="#2989FA"/>
<path d="M29.7413 24.375H18.125C17.9592 24.375 17.8003 24.4408 17.6831 24.5581C17.5658 24.6753 17.5 24.8342 17.5 25C17.5 25.1658 17.5658 25.3247 17.6831 25.4419C17.8003 25.5591 17.9592 25.625 18.125 25.625H29.7413L25.1825 30.1825C25.0651 30.2999 24.9992 30.459 24.9992 30.625C24.9992 30.791 25.0651 30.9501 25.1825 31.0675C25.2999 31.1849 25.459 31.2508 25.625 31.2508C25.791 31.2508 25.9501 31.1849 26.0675 31.0675L31.6925 25.4425C31.7507 25.3844 31.7969 25.3155 31.8284 25.2395C31.8599 25.1636 31.8761 25.0822 31.8761 25C31.8761 24.9178 31.8599 24.8364 31.8284 24.7605C31.7969 24.6845 31.7507 24.6156 31.6925 24.5575L26.0675 18.9325C25.9501 18.8151 25.791 18.7492 25.625 18.7492C25.459 18.7492 25.2999 18.8151 25.1825 18.9325C25.0651 19.0499 24.9992 19.209 24.9992 19.375C24.9992 19.541 25.0651 19.7001 25.1825 19.8175L29.7413 24.375Z" fill="white"/>
</svg>
