<svg width="114" height="60" viewBox="0 0 114 60" fill="none" xmlns="http://www.w3.org/2000/svg">
<g clip-path="url(#clip0_1_3717)">
<path d="M78.3749 1.07153C82.7368 1.07093 86.9243 2.79965 90.0343 5.88493C93.1442 8.97022 94.9277 13.1649 94.9999 17.5645C95.4274 21.7092 95.3657 27.8234 92.5869 34.8815C89.7464 42.0978 84.2079 49.9657 74.0999 57.6132C73.6009 57.9907 73.0331 58.2655 72.4288 58.4216C71.8245 58.5778 71.1957 58.6124 70.5782 58.5234C69.3311 58.3437 68.2058 57.6715 67.4499 56.6549C66.6941 55.6382 66.3695 54.3603 66.5477 53.1022C66.7258 51.8442 67.3921 50.709 68.3999 49.9465C75.8289 44.3259 80.0849 38.8634 82.5217 34.0861C80.2371 34.678 77.8539 34.7726 75.5302 34.3638C73.2066 33.955 70.9958 33.0522 69.0447 31.7152C67.0936 30.3781 65.4468 28.6376 64.2138 26.6092C62.9808 24.5808 62.1898 22.311 61.8933 19.9505C61.5969 17.5899 61.8017 15.1928 62.4942 12.9183C63.1868 10.6438 64.3511 8.54395 65.91 6.75831C67.4689 4.97266 69.3866 3.54209 71.5358 2.5616C73.6849 1.58112 76.0162 1.07318 78.3749 1.07153ZM35.6249 1.07153C39.9868 1.07093 44.1743 2.79965 47.2842 5.88493C50.3942 8.97022 52.1777 13.1649 52.2499 17.5645C52.6774 21.7092 52.6157 27.8234 49.8369 34.8815C47.0012 42.0978 41.4579 49.9657 31.3499 57.6132C30.8509 57.9907 30.2831 58.2655 29.6788 58.4216C29.0745 58.5778 28.4457 58.6124 27.8282 58.5234C26.5811 58.3437 25.4558 57.6715 24.6999 56.6549C23.9441 55.6382 23.6195 54.3603 23.7977 53.1022C23.9758 51.8442 24.6421 50.709 25.6499 49.9465C33.0789 44.3259 37.3349 38.8634 39.7717 34.0861C37.4871 34.678 35.1039 34.7726 32.7802 34.3638C30.4566 33.955 28.2458 33.0522 26.2947 31.7152C24.3436 30.3781 22.6968 28.6376 21.4638 26.6092C20.2308 24.5808 19.4398 22.311 19.1433 19.9505C18.8469 17.5899 19.0517 15.1928 19.7442 12.9183C20.4367 10.6438 21.6011 8.54395 23.16 6.75831C24.7189 4.97266 26.6366 3.54209 28.7858 2.5616C30.9349 1.58112 33.2662 1.07318 35.6249 1.07153Z" fill="#023E84"/>
</g>
<defs>
<clipPath id="clip0_1_3717">
<rect width="114" height="60" fill="white"/>
</clipPath>
</defs>
</svg>
