<svg width="25" height="24" viewBox="0 0 25 24" fill="none" xmlns="http://www.w3.org/2000/svg">
<path fill-rule="evenodd" clip-rule="evenodd" d="M20.1304 4.43003C20.3784 4.32602 20.6498 4.29015 20.9164 4.32614C21.183 4.36214 21.4351 4.46869 21.6463 4.63471C21.8576 4.80073 22.0203 5.02014 22.1176 5.27011C22.2149 5.52008 22.2432 5.79147 22.1995 6.05603L19.9237 19.813C19.7029 21.14 18.2418 21.901 17.0206 21.24C15.9991 20.687 14.4818 19.835 13.1171 18.946C12.4348 18.501 10.3445 17.076 10.6014 16.062C10.8222 15.195 14.3343 11.937 16.3413 10C17.129 9.23903 16.7698 8.80003 15.8395 9.50003C13.5285 11.238 9.82071 13.881 8.59446 14.625C7.51272 15.281 6.94877 15.393 6.27444 15.281C5.04418 15.077 3.90323 14.761 2.97201 14.376C1.71365 13.856 1.77487 12.132 2.97101 11.63L20.1304 4.43003Z" fill="white"/>
</svg>
