<svg width="22" height="17" viewBox="0 0 22 17" fill="none" xmlns="http://www.w3.org/2000/svg">
<path d="M21.6759 2C20.9032 2.35 20.0703 2.58 19.2073 2.69C20.0904 2.16 20.7727 1.32 21.0939 0.31C20.261 0.81 19.3378 1.16 18.3644 1.36C17.5717 0.5 16.4578 0 15.1934 0C12.8353 0 10.9086 1.92 10.9086 4.29C10.9086 4.63 10.9487 4.96 11.019 5.27C7.44663 5.09 4.26562 3.38 2.1483 0.79C1.77701 1.42 1.56628 2.16 1.56628 2.94C1.56628 4.43 2.31889 5.75 3.48291 6.5C2.77045 6.5 2.10816 6.3 1.52614 6V6.03C1.52614 8.11 3.01128 9.85 4.97809 10.24C4.34663 10.4122 3.68371 10.4362 3.04139 10.31C3.31394 11.1625 3.84771 11.9084 4.56769 12.4429C5.28766 12.9775 6.15762 13.2737 7.05528 13.29C5.53364 14.4904 3.64748 15.1393 1.70677 15.13C1.36559 15.13 1.02441 15.11 0.683228 15.07C2.58982 16.29 4.85767 17 7.28607 17C15.1934 17 19.5385 10.46 19.5385 4.79C19.5385 4.6 19.5385 4.42 19.5284 4.23C20.3714 3.63 21.0939 2.87 21.6759 2Z" fill="white"/>
</svg>
