<svg width="22" height="13" viewBox="0 0 22 13" fill="none" xmlns="http://www.w3.org/2000/svg">
<path d="M21.0082 12.381H18.7193C17.8533 12.381 17.5924 11.682 16.0401 10.134C14.6834 8.83097 14.1104 8.66897 13.7672 8.66897C13.2925 8.66897 13.1631 8.79897 13.1631 9.44997V11.502C13.1631 12.057 12.9825 12.382 11.5274 12.382C10.1158 12.2875 8.74698 11.8601 7.53359 11.1351C6.3202 10.4101 5.29701 9.40824 4.54829 8.21197C2.77053 6.00699 1.53357 3.41905 0.935791 0.653967C0.935791 0.311967 1.06624 0.00196716 1.72051 0.00196716H4.00842C4.59646 0.00196716 4.80819 0.262967 5.03899 0.865967C6.14983 4.12397 8.04539 6.95797 8.81505 6.95797C9.11008 6.95797 9.23852 6.82797 9.23852 6.09497V2.73897C9.14118 1.20797 8.32536 1.07897 8.32536 0.524967C8.33568 0.378808 8.40277 0.242416 8.51238 0.14476C8.62199 0.0471049 8.76549 -0.00411965 8.91239 0.00196716H12.5088C13.0005 0.00196716 13.1631 0.245967 13.1631 0.831967V5.36197C13.1631 5.85097 13.3738 6.01297 13.5223 6.01297C13.8174 6.01297 14.0441 5.85097 14.585 5.31297C15.7444 3.90395 16.6916 2.33413 17.3967 0.652967C17.4689 0.45112 17.6054 0.278342 17.7853 0.160984C17.9652 0.0436269 18.1787 -0.0118671 18.3932 0.00296708H20.6821C21.3685 0.00296708 21.514 0.344967 21.3685 0.832967C20.536 2.69138 19.5059 4.45547 18.2959 6.09497C18.049 6.46997 17.9507 6.66497 18.2959 7.10497C18.5226 7.44697 19.3254 8.11497 19.8643 8.74997C20.649 9.52997 21.3003 10.432 21.793 11.42C21.9896 12.056 21.6615 12.381 21.0082 12.381Z" fill="white"/>
</svg>
