<svg width="21" height="14" viewBox="0 0 21 14" fill="none" xmlns="http://www.w3.org/2000/svg">
<path d="M8.02778 10L13.2358 7L8.02778 4V10ZM19.6279 2.17C19.7584 2.64 19.8487 3.27 19.9089 4.07C19.9791 4.87 20.0092 5.56 20.0092 6.16L20.0694 7C20.0694 9.19 19.9089 10.8 19.6279 11.83C19.377 12.73 18.795 13.31 17.8919 13.56C17.4203 13.69 16.5573 13.78 15.2327 13.84C13.9282 13.91 12.7341 13.94 11.6302 13.94L10.0347 14C5.83017 14 3.21111 13.84 2.17753 13.56C1.27441 13.31 0.692396 12.73 0.441528 11.83C0.311076 11.36 0.220764 10.73 0.160556 9.93C0.0903126 9.13 0.0602083 8.44 0.0602083 7.84L0 7C0 4.81 0.160556 3.2 0.441528 2.17C0.692396 1.27 1.27441 0.69 2.17753 0.44C2.64917 0.31 3.51215 0.22 4.83674 0.16C6.14125 0.0899998 7.33538 0.0599999 8.4392 0.0599999L10.0347 0C14.2393 0 16.8583 0.16 17.8919 0.44C18.795 0.69 19.377 1.27 19.6279 2.17Z" fill="white"/>
</svg>
