<svg width="264" height="264" viewBox="0 0 264 264" fill="none" xmlns="http://www.w3.org/2000/svg">
<path d="M131.741 258.807L131.662 258.764C99.6334 240.556 73.6351 168.925 73.7868 99.0845V98.8318H74.0251C139.266 90.0566 218.381 97.7123 250.395 115.898L250.532 115.978V116.137C250.402 186.006 197.127 250.01 131.835 258.792L131.741 258.807ZM74.3573 99.3229C74.2923 168.852 100.067 240.072 131.879 258.215C196.874 249.425 249.81 185.782 250.012 116.252C218.02 98.2179 139.353 90.6199 74.3573 99.3229Z" fill="#2989FA"/>
<path d="M191.349 233.449C175.274 224.313 135.482 220.449 102.659 224.884L102.587 224.349C135.511 219.922 175.454 223.793 191.617 232.973L191.349 233.449Z" fill="#2989FA"/>
<path d="M233.843 182.329C206.292 166.679 138.133 160.092 81.9042 167.654L81.832 167.119C138.162 159.543 206.472 166.159 234.11 181.86L233.843 182.329Z" fill="#2989FA"/>
<path d="M131.9 258.778L131.69 258.28C171.757 241.574 204.457 171.323 204.587 101.67H205.128C204.998 171.525 172.147 242.001 131.9 258.778Z" fill="#2989FA"/>
<path d="M132.059 258.597L131.532 258.46C136.833 238.368 141.245 165.292 141.375 95.5527H141.917C141.787 165.328 137.367 238.469 132.059 258.597Z" fill="#2989FA"/>
<path d="M116.966 259.804C92.1805 259.804 69.0421 251.281 50.6194 235.139C38.8844 224.799 29.6072 211.968 23.4656 197.583C16.8577 182.416 13.5141 165.725 13.5285 148.045C3.62028 142.375 -0.972748 136.063 0.240505 129.779C2.862 116.461 31.1062 104.61 74.0251 98.8317L74.3284 98.7883V99.0989C74.1984 168.766 100.038 240.188 131.929 258.309L132.651 258.706L131.857 258.807C126.921 259.471 121.946 259.804 116.966 259.804V259.804ZM73.7795 99.395C31.2723 105.173 3.30975 116.837 0.774913 129.917C-0.402232 135.983 4.14747 142.13 13.9329 147.684L14.0701 147.763V147.944C14.034 165.61 17.3633 182.257 23.9567 197.424C30.0768 211.723 39.3089 224.477 50.9805 234.756C72.7252 253.809 101.107 262.201 130.969 258.381C99.294 239.552 73.7362 168.636 73.7868 99.395H73.7795Z" fill="#2989FA"/>
<path d="M72.0678 249.483C66.9693 246.594 64.6077 243.337 65.236 240.094C66.5504 233.305 80.8494 227.274 102.558 224.356L102.63 224.891C81.16 227.78 67.0415 233.644 65.7993 240.202C65.2144 243.199 67.4892 246.247 72.3639 249.021L72.0678 249.483Z" fill="#2989FA"/>
<path d="M29.72 209.781C21.0539 204.87 17.0531 199.381 18.1147 193.892C20.3534 182.336 44.7629 172.088 81.8322 167.104L81.9044 167.639C45.0735 172.593 20.8373 182.69 18.6419 193.993C17.6308 199.215 21.5306 204.509 29.9872 209.298L29.72 209.781Z" fill="#2989FA"/>
<path d="M131.748 258.793C71.0855 247.511 21.9054 181.513 22.0354 111.608H22.577C22.4471 181.239 71.461 247.027 131.842 258.258L131.748 258.793Z" fill="#2989FA"/>
<path d="M131.792 258.8C59.1921 257.196 0.284286 199.028 0.414277 129.122H0.955908C0.825917 198.724 59.5243 256.655 131.8 258.251L131.792 258.8Z" fill="#2989FA"/>
<path d="M146.416 263.01C141.242 262.908 136.184 261.459 131.741 258.807C101.467 262.859 72.6671 254.474 50.6263 235.139C38.8913 224.799 29.6142 211.968 23.4726 197.583C16.843 182.351 13.4993 165.624 13.5354 147.886V147.424L13.9399 147.648C45.86 165.79 124.83 173.417 189.963 164.656L190.273 164.613V164.924C190.187 212.086 178.162 248.335 158.902 259.536C155.126 261.792 150.814 262.992 146.416 263.01ZM131.849 258.244L131.929 258.294C141.317 263.639 150.33 263.913 158.649 259.089C177.707 248.024 189.616 212.086 189.753 165.27C124.844 173.937 46.3149 166.375 14.0987 148.384C14.0987 165.877 17.4496 182.366 23.9853 197.403C30.1054 211.701 39.3375 224.455 51.0091 234.735C72.9487 253.961 101.634 262.317 131.784 258.258L131.849 258.244Z" fill="#2989FA"/>
<path d="M132.363 259.941C107.607 259.941 83.6954 256.091 72.0684 249.483L72.3356 249.013C88.4112 258.15 128.203 262.014 161.026 257.572L161.098 258.114C151.57 259.354 141.971 259.965 132.363 259.941V259.941Z" fill="#2989FA"/>
<path d="M132.81 227.664C90.4691 227.664 49.5868 221.07 29.7197 209.782L29.9869 209.312C57.5379 224.97 125.69 231.55 181.925 223.988L181.99 224.523C165.684 226.653 149.255 227.702 132.81 227.664V227.664Z" fill="#2989FA"/>
<path d="M114.799 262.396C107.101 262.375 99.5869 260.037 93.2351 255.687C71.6638 241.278 58.8379 206.394 58.9174 162.374H59.459C59.3796 206.214 72.1187 240.924 93.5384 255.232C104.956 262.866 118.15 263.899 131.676 258.28L131.886 258.778C126.486 261.104 120.678 262.334 114.799 262.396Z" fill="#2989FA"/>
<path d="M129.148 263.964H129.026C124.151 263.328 122.057 215.574 122.143 168.491H122.685C122.569 230.242 125.826 262.989 129.098 263.415C129.444 263.48 130.325 263.054 131.531 258.46L132.059 258.597C131.098 262.245 130.167 263.964 129.148 263.964Z" fill="#2989FA"/>
<path d="M146.416 263.01C141.606 263.01 136.637 261.566 131.662 258.764L130.939 258.366L131.741 258.258C145.919 256.299 159.641 251.857 172.277 245.135C183.225 227.96 189.645 199.389 189.71 164.967V164.729H189.941C213.621 161.544 232.809 156.524 245.635 150.443C248.477 139.235 249.933 127.721 249.968 116.158V115.696L250.373 115.92C260.375 121.604 265.011 127.952 263.791 134.265C262.642 140.194 256.425 145.82 246.105 150.782C235.778 191.466 208.154 226.834 172.645 245.59C168.63 251.859 163.979 256.611 158.88 259.594C155.105 261.826 150.801 263.005 146.416 263.01V263.01ZM132.637 258.677C141.794 263.646 150.539 263.783 158.635 259.081C163.481 256.272 167.864 251.859 171.706 246.045C159.49 252.435 146.28 256.708 132.637 258.684V258.677ZM190.273 165.191C190.179 199.078 183.925 227.303 173.244 244.637C208.097 225.909 235.2 191.083 245.462 151.042C232.629 157.073 213.628 162.042 190.273 165.198V165.191ZM250.524 116.584C250.454 127.884 249.031 139.135 246.285 150.096C256.208 145.293 262.173 139.84 263.278 134.12C264.441 128.147 260.028 122.088 250.524 116.592V116.584Z" fill="#2989FA"/>
<path d="M161.098 258.114L161.025 257.572C182.496 254.683 196.621 248.826 197.892 242.268C198.47 239.271 196.195 236.223 191.321 233.449L191.588 232.973C196.686 235.862 199.048 239.119 198.42 242.362C197.127 249.158 182.806 255.189 161.098 258.114Z" fill="#2989FA"/>
<path d="M181.961 224.501L181.896 223.966C218.727 219.012 242.956 208.915 245.152 197.612C246.163 192.39 242.263 187.096 233.814 182.308L234.081 181.838C242.747 186.757 246.741 192.246 245.686 197.728C243.476 209.276 219.06 219.539 181.961 224.501Z" fill="#2989FA"/>
<path d="M149.254 260.432C143.38 260.424 137.521 259.875 131.748 258.792L131.842 258.258C158.469 263.212 184.163 256.813 204.197 240.202C227.826 220.593 241.417 188.62 241.49 152.465H242.031C241.959 188.779 228.31 220.911 204.543 240.578C189.031 253.509 169.448 260.542 149.254 260.432Z" fill="#2989FA"/>
<path d="M134.89 258.829C133.857 258.829 132.825 258.829 131.792 258.829V258.287C167.72 259.074 201.244 246.059 226.26 221.626C249.954 198.515 263.04 167.711 263.091 134.958H263.632C263.574 167.863 250.431 198.782 226.635 222.024C202.247 245.814 169.764 258.829 134.89 258.829Z" fill="#2989FA"/>
<path d="M250.525 116.584L250.12 116.36C218.2 98.2178 139.238 90.591 74.0976 99.3517L73.7871 99.395V99.0845C73.8738 51.9153 85.898 15.6663 105.166 4.47161C113.499 -0.367366 122.888 -0.107362 132.319 5.19385C162.586 1.14933 191.393 9.52726 213.434 28.8615C225.167 39.2036 234.444 52.0343 240.588 66.4178C247.217 81.6497 250.561 98.3695 250.532 116.115L250.525 116.584ZM130.991 95.1772C179.752 95.1772 226.83 102.725 249.991 115.66C249.991 98.16 246.632 81.6714 240.097 66.6417C233.977 52.3406 224.745 39.5845 213.073 29.3021C191.133 10.0762 162.463 1.72712 132.305 5.77886H132.211L132.132 5.73552C122.743 0.383759 113.731 0.116531 105.411 4.93384C86.3818 16.0129 74.4732 51.9514 74.3576 98.7739C93.1361 96.3358 112.055 95.1343 130.991 95.1772V95.1772Z" fill="#2989FA"/>
<path d="M234.081 54.732C206.515 39.0739 138.364 32.4943 82.1425 40.0561L82.0703 39.5145C138.4 31.9382 206.703 38.5539 234.348 54.2553L234.081 54.732Z" fill="#2989FA"/>
<path d="M191.725 15.0525C175.65 5.91617 135.865 2.05221 103.035 6.49396L102.963 5.95951C135.887 1.53221 175.83 5.39616 191.993 14.583L191.725 15.0525Z" fill="#2989FA"/>
<path d="M205.129 101.67H204.587C204.666 57.8304 191.927 23.1125 170.508 8.80503C159.09 1.171 145.903 0.138199 132.37 5.76441L132.16 5.25885C145.881 -0.454032 159.227 0.622098 170.811 8.35002C192.382 22.7658 205.208 57.6643 205.129 101.67Z" fill="#2989FA"/>
<path d="M141.916 95.5528H141.375C141.519 33.8305 138.233 1.04825 134.962 0.607684C134.637 0.557127 133.741 0.96158 132.528 5.56222L132.001 5.42499C133.005 1.63326 133.98 -0.0639955 135.034 0.0660069C139.909 0.716019 142.003 48.4919 141.916 95.5528Z" fill="#2989FA"/>
<path d="M14.0776 148.384L13.6732 148.16C3.66383 142.476 -0.972538 136.128 0.247938 129.816C1.40342 123.886 7.61412 118.26 17.934 113.298C28.2611 72.6073 55.8843 37.2394 91.4008 18.483C95.4161 12.214 100.067 7.46167 105.165 4.47883C113.521 -0.37459 122.938 -0.100142 132.399 5.27329L133.121 5.67052L132.326 5.77886C118.139 7.73427 104.407 12.1766 91.7619 18.9019C80.8137 36.0766 74.4297 64.6483 74.3286 99.07V99.3084H74.0975C50.4174 102.493 31.2365 107.513 18.4106 113.594C15.5684 124.802 14.1131 136.316 14.0776 147.879V148.384ZM17.7751 113.941C7.85966 118.744 1.88727 124.197 0.782345 129.917C-0.380356 135.897 4.03213 141.956 13.536 147.453C13.6065 136.153 15.0297 124.902 17.7751 113.941V113.941ZM90.8231 19.3858C55.9637 38.1639 28.8605 72.954 18.5695 113.002C31.4314 106.971 50.4319 102.002 73.787 98.8461C73.8809 64.9516 80.1349 36.7194 90.8231 19.3858ZM117.688 1.52489C113.363 1.54023 109.122 2.72029 105.411 4.94106C100.565 7.75778 96.1816 12.1634 92.3396 17.9413C104.561 11.5747 117.77 7.31864 131.409 5.35274C126.71 2.80565 122.137 1.5297 117.688 1.52489Z" fill="#2989FA"/>
<path d="M29.9503 82.2204C21.2842 77.3019 17.2906 71.8129 18.3522 66.3312C20.5837 54.7754 45.0005 44.5269 82.0697 39.5435L82.1419 40.0851C45.311 45.0324 21.0748 55.1365 18.8794 66.4395C17.8684 71.6613 21.7681 76.948 30.2176 81.7365L29.9503 82.2204Z" fill="#2989FA"/>
<path d="M72.4721 31.0643C67.3736 28.1754 65.012 24.9181 65.6403 21.6753C66.9547 14.8862 81.261 8.85558 102.962 5.93774L103.035 6.4722C81.5643 9.36114 67.4458 15.2257 66.2036 21.7764C65.6187 24.7736 67.8935 27.8287 72.7682 30.6021L72.4721 31.0643Z" fill="#2989FA"/>
<path d="M22.5778 111.608H22.0361C22.1011 75.2869 35.7575 43.1546 59.5242 23.452C79.6801 6.72507 105.534 0.261061 132.312 5.24449L132.218 5.77895C105.592 0.824409 79.8968 7.22342 59.8636 23.8348C36.2341 43.4724 22.6428 75.453 22.5778 111.608Z" fill="#2989FA"/>
<path d="M0.955693 129.166H0.414062C0.479058 96.2605 13.6154 65.3343 37.4183 42.0928C62.5428 17.5368 96.225 4.48598 132.269 5.25877V5.80045C96.3622 5.00599 62.8244 18.0279 37.8083 42.4611C14.0993 65.6088 1.02069 96.3616 0.955693 129.166Z" fill="#2989FA"/>
<path d="M133.07 168.889C84.0274 168.889 36.6816 161.233 13.6948 148.16L13.5576 148.081V147.944C13.6948 78.0313 66.9119 14.0268 132.233 5.24438H132.319L132.399 5.28772C164.442 23.4953 190.404 95.1338 190.274 164.974V165.212H190.035C171.149 167.693 152.119 168.922 133.07 168.889V168.889ZM14.0776 147.763C46.0483 165.819 124.729 173.424 189.732 164.721C189.804 95.1916 164.03 23.9647 132.211 5.8294C67.2441 14.5829 14.2798 78.2263 14.0776 147.763Z" fill="#2989FA"/>
<path d="M133.049 100.06C90.7077 100.06 49.8254 93.4727 29.9512 82.1842L30.2184 81.7075C57.7477 97.3873 125.928 103.952 182.157 96.3834L182.229 96.925C165.923 99.053 149.493 100.1 133.049 100.06V100.06Z" fill="#2989FA"/>
<path d="M132.767 41.5224C108.011 41.5224 84.0997 37.6657 72.4727 31.0644L72.7399 30.595C88.8227 39.724 128.607 43.5952 161.437 39.1535L161.51 39.6879C151.98 40.9342 142.378 41.547 132.767 41.5224V41.5224Z" fill="#2989FA"/>
<path d="M59.4733 162.389H58.9316C59.0616 92.534 91.9134 22.051 132.16 5.27344L132.37 5.77901C92.3033 22.4627 59.6033 92.7145 59.4733 162.389Z" fill="#2989FA"/>
<path d="M122.685 168.491H122.144C122.274 98.7161 126.7 25.5752 132.001 5.44653L132.528 5.58376C127.228 25.6691 122.815 98.7522 122.685 168.491Z" fill="#2989FA"/>
<path d="M189.732 165.277V164.967C189.862 95.2927 164.023 23.8708 132.131 5.75718L131.409 5.35995L132.211 5.25161C162.542 1.1782 191.35 9.58503 213.412 28.9048C225.145 39.2469 234.422 52.0776 240.566 66.4611C247.174 81.628 250.517 98.3189 250.51 115.999C260.418 121.662 265.011 127.981 263.791 134.265C261.198 147.619 232.932 159.492 190.014 165.263L189.732 165.277ZM133.092 5.66329C164.766 24.4414 190.324 95.3938 190.274 164.635C232.781 158.857 260.743 147.193 263.278 134.113C264.455 128.046 259.906 121.9 250.12 116.346L249.99 116.266V116.108C249.99 98.4417 246.69 81.7942 240.096 66.6272C233.976 52.3262 224.744 39.57 213.073 29.2876C191.35 10.2495 162.954 1.87155 133.092 5.66329Z" fill="#2989FA"/>
<path d="M182.228 96.9251L182.156 96.3834C218.987 91.4361 243.223 81.332 245.419 70.029C246.43 64.8145 242.53 59.5205 234.081 54.732L234.348 54.2554C243.014 59.1738 247.008 64.6628 245.946 70.1446C243.714 81.6714 219.298 91.9416 182.228 96.9251Z" fill="#2989FA"/>
<path d="M161.51 39.6878L161.438 39.1533C182.901 36.2644 197.026 30.3998 198.268 23.8419C198.846 20.8446 196.579 17.7968 191.697 15.0234L191.964 14.554C197.062 17.4429 199.431 20.7002 198.796 23.943C197.51 30.7393 183.211 36.7699 161.51 39.6878Z" fill="#2989FA"/>
<path d="M242.032 152.436H241.49C241.62 82.8053 192.599 17.0096 132.218 5.77884L132.312 5.24438C192.938 16.4968 242.162 82.5525 242.032 152.436Z" fill="#2989FA"/>
<path d="M263.647 134.944H263.105C263.235 65.3345 204.537 7.40393 132.262 5.80779V5.26611C204.84 6.84059 263.777 65.0167 263.647 134.944Z" fill="#2989FA"/>
</svg>
