<svg width="315" height="60" viewBox="0 0 315 60" fill="none" xmlns="http://www.w3.org/2000/svg">
<path d="M199 20.15V32.3097V51.67V56.0859C199 56.5167 199.67 56.5176 199.67 56.0859V43.9262V24.5659V20.15C199.67 19.7192 199 19.7183 199 20.15Z" fill="white"/>
<path d="M218.588 27V26.484L219.776 26.232L219.62 26.448V19.188L219.812 19.416L218.588 19.2V18.684L221.648 18.624V19.14L220.436 19.416L220.604 19.188V25.14L220.424 25.092L225.26 19.5L225.14 19.788V19.188L225.32 19.416L224.096 19.2V18.684L227.156 18.624V19.14L225.956 19.416L226.124 19.188V26.448L225.956 26.232L227.156 26.484V27H224.096V26.484L225.296 26.232L225.14 26.448V20.388L225.32 20.46L220.496 26.052L220.604 25.776V26.448L220.448 26.232L221.648 26.484V27H218.588ZM228.315 27V26.484L229.503 26.232L229.347 26.448V19.188L229.539 19.416L228.315 19.2V18.684L231.375 18.624V19.14L230.163 19.416L230.331 19.188V22.548L230.151 22.368H234.855L234.675 22.548V19.188L234.855 19.416L233.643 19.2V18.684L236.703 18.624V19.14L235.503 19.416L235.659 19.188V26.448L235.503 26.232L236.703 26.484V27H233.643V26.484L234.831 26.232L234.675 26.448V22.932L234.855 23.1H230.151L230.331 22.932V26.448L230.175 26.232L231.375 26.484V27H228.315ZM241.477 27.108C240.837 27.108 240.253 26.944 239.725 26.616C239.197 26.288 238.777 25.808 238.465 25.176C238.161 24.544 238.009 23.768 238.009 22.848C238.009 21.944 238.165 21.168 238.477 20.52C238.789 19.872 239.225 19.376 239.785 19.032C240.345 18.688 240.997 18.516 241.741 18.516C242.141 18.516 242.557 18.564 242.989 18.66C243.421 18.756 243.869 18.908 244.333 19.116L244.249 21H243.661L243.445 19.512L243.625 19.704C243.305 19.568 242.981 19.468 242.653 19.404C242.333 19.332 242.033 19.296 241.753 19.296C241.201 19.296 240.725 19.436 240.325 19.716C239.925 19.988 239.613 20.38 239.389 20.892C239.173 21.404 239.065 22.016 239.065 22.728C239.065 23.496 239.181 24.144 239.413 24.672C239.645 25.2 239.961 25.604 240.361 25.884C240.769 26.156 241.225 26.292 241.729 26.292C242.097 26.292 242.481 26.212 242.881 26.052C243.289 25.892 243.681 25.648 244.057 25.32L244.453 25.908C243.981 26.316 243.489 26.62 242.977 26.82C242.465 27.012 241.965 27.108 241.477 27.108ZM246.543 27V26.484L247.935 26.232L247.743 26.496V19.176L247.959 19.356H245.643L245.883 19.152L245.643 20.676H245.043V18.624H251.415V20.676H250.815L250.575 19.176L250.815 19.356H248.499L248.715 19.176V26.496L248.535 26.232L249.915 26.484V27H246.543ZM252.057 27V26.484L253.245 26.232L253.089 26.448V19.188L253.281 19.416L252.057 19.2V18.684L255.117 18.624V19.14L253.905 19.416L254.073 19.188V25.14L253.893 25.092L258.729 19.5L258.609 19.788V19.188L258.789 19.416L257.565 19.2V18.684L260.625 18.624V19.14L259.425 19.416L259.593 19.188V26.448L259.425 26.232L260.625 26.484V27H257.565V26.484L258.765 26.232L258.609 26.448V20.388L258.789 20.46L253.965 26.052L254.073 25.776V26.448L253.917 26.232L255.117 26.484V27H252.057ZM262.75 27V26.484L264.142 26.232L263.95 26.496V19.176L264.166 19.356H261.85L262.09 19.152L261.85 20.676H261.25V18.624H267.622V20.676H267.022L266.782 19.176L267.022 19.356H264.706L264.922 19.176V26.496L264.742 26.232L266.122 26.484V27H262.75ZM269.007 26.94L269.211 26.16C269.403 26.224 269.575 26.272 269.727 26.304C269.879 26.336 270.019 26.352 270.147 26.352C270.499 26.352 270.779 26.228 270.987 25.98C271.203 25.724 271.403 25.38 271.587 24.948L271.515 25.38L268.647 19.224L268.899 19.404L267.771 19.2V18.684L270.915 18.624V19.14L269.607 19.392L269.727 19.14L271.983 24.372L271.863 24.42L273.987 19.188L274.071 19.404L272.787 19.2V18.684L275.763 18.624V19.14L274.635 19.392L274.887 19.188L272.523 24.84C272.315 25.336 272.095 25.76 271.863 26.112C271.631 26.456 271.375 26.72 271.095 26.904C270.815 27.08 270.491 27.168 270.123 27.168C269.955 27.168 269.779 27.148 269.595 27.108C269.411 27.068 269.215 27.012 269.007 26.94ZM277.433 27V26.484L278.825 26.232L278.633 26.496V19.176L278.849 19.356H276.533L276.773 19.152L276.533 20.676H275.933V18.624H282.305V20.676H281.705L281.465 19.176L281.705 19.356H279.389L279.605 19.176V26.496L279.425 26.232L280.805 26.484V27H277.433Z" fill="white"/>
<path d="M224.24 33.744L223.064 33.984L223.196 33.852V41.652L223.064 41.508L224.24 41.736V42.24H221.324V41.736L222.488 41.52L222.368 41.652V33.852L222.512 33.984L221.324 33.804V33.3L224.24 33.24V33.744ZM222.62 40.74C221.788 40.74 221.068 40.644 220.46 40.452C219.86 40.252 219.396 39.936 219.068 39.504C218.748 39.072 218.588 38.508 218.588 37.812C218.588 37.084 218.764 36.496 219.116 36.048C219.468 35.592 219.96 35.264 220.592 35.064C221.232 34.856 221.988 34.752 222.86 34.752C223.492 34.752 224.06 34.808 224.564 34.92C225.076 35.024 225.508 35.192 225.86 35.424C226.22 35.648 226.496 35.944 226.688 36.312C226.88 36.68 226.976 37.124 226.976 37.644C226.976 38.348 226.8 38.932 226.448 39.396C226.104 39.852 225.604 40.192 224.948 40.416C224.3 40.632 223.524 40.74 222.62 40.74ZM222.692 40.14C223.356 40.148 223.928 40.076 224.408 39.924C224.896 39.772 225.276 39.516 225.548 39.156C225.82 38.788 225.956 38.296 225.956 37.68C225.956 37.096 225.828 36.636 225.572 36.3C225.324 35.956 224.964 35.712 224.492 35.568C224.028 35.424 223.464 35.352 222.8 35.352C222.16 35.352 221.6 35.424 221.12 35.568C220.64 35.712 220.268 35.96 220.004 36.312C219.74 36.664 219.608 37.152 219.608 37.776C219.608 38.36 219.728 38.824 219.968 39.168C220.216 39.512 220.572 39.76 221.036 39.912C221.5 40.064 222.052 40.14 222.692 40.14ZM227.94 42V41.484L229.128 41.232L228.972 41.448V34.188L229.164 34.416L227.94 34.2V33.684L231 33.624V34.14L229.788 34.416L229.956 34.188V40.14L229.776 40.092L234.612 34.5L234.492 34.788V34.188L234.672 34.416L233.448 34.2V33.684L236.508 33.624V34.14L235.308 34.416L235.476 34.188V41.448L235.308 41.232L236.508 41.484V42H233.448V41.484L234.648 41.232L234.492 41.448V35.388L234.672 35.46L229.848 41.052L229.956 40.776V41.448L229.8 41.232L231 41.484V42H227.94ZM237.666 42V41.484L238.854 41.232L238.698 41.448V34.188L238.89 34.416L237.666 34.2V33.684L240.726 33.624V34.14L239.514 34.416L239.682 34.188V37.548L239.502 37.368H244.206L244.026 37.548V34.188L244.206 34.416L242.994 34.2V33.684L246.054 33.624V34.14L244.854 34.416L245.01 34.188V41.448L244.854 41.232L246.054 41.484V42H242.994V41.484L244.182 41.232L244.026 41.448V37.932L244.206 38.1H239.502L239.682 37.932V41.448L239.526 41.232L240.726 41.484V42H237.666ZM253.862 41.472L253.586 41.232L254.714 41.484V42H251.594V41.484L252.842 41.244L252.746 41.412L252.11 39.492L252.29 39.636H248.618L248.786 39.492L248.102 41.388L248.042 41.256L249.266 41.484V42H246.314V41.484L247.418 41.232L247.166 41.448L250.094 33.636L251.09 33.6L253.862 41.472ZM248.918 39.072L248.822 38.916H252.098L251.99 39.084L250.418 34.2L250.646 34.212L248.918 39.072ZM254.998 42V41.484L256.186 41.232L256.03 41.448V34.188L256.222 34.416L254.998 34.2V33.684L258.058 33.624V34.14L256.846 34.416L257.014 34.188V37.548L256.834 37.368H261.538L261.358 37.548V34.188L261.538 34.416L260.326 34.2V33.684L263.386 33.624V34.14L262.186 34.416L262.342 34.188V41.448L262.186 41.232L263.386 41.484V42H260.326V41.484L261.514 41.232L261.358 41.448V37.932L261.538 38.1H256.834L257.014 37.932V41.448L256.858 41.232L258.058 41.484V42H254.998ZM268.161 42.108C267.521 42.108 266.937 41.944 266.409 41.616C265.881 41.288 265.461 40.808 265.149 40.176C264.845 39.544 264.693 38.768 264.693 37.848C264.693 36.944 264.849 36.168 265.161 35.52C265.473 34.872 265.909 34.376 266.469 34.032C267.029 33.688 267.681 33.516 268.425 33.516C268.825 33.516 269.241 33.564 269.673 33.66C270.105 33.756 270.553 33.908 271.017 34.116L270.933 36H270.345L270.129 34.512L270.309 34.704C269.989 34.568 269.665 34.468 269.337 34.404C269.017 34.332 268.717 34.296 268.437 34.296C267.885 34.296 267.409 34.436 267.009 34.716C266.609 34.988 266.297 35.38 266.073 35.892C265.857 36.404 265.749 37.016 265.749 37.728C265.749 38.496 265.865 39.144 266.097 39.672C266.329 40.2 266.645 40.604 267.045 40.884C267.453 41.156 267.909 41.292 268.413 41.292C268.781 41.292 269.165 41.212 269.565 41.052C269.973 40.892 270.365 40.648 270.741 40.32L271.137 40.908C270.665 41.316 270.173 41.62 269.661 41.82C269.149 42.012 268.649 42.108 268.161 42.108ZM275.735 42.108C275.047 42.108 274.427 41.952 273.875 41.64C273.331 41.328 272.899 40.86 272.579 40.236C272.267 39.604 272.111 38.824 272.111 37.896C272.111 37.168 272.207 36.532 272.399 35.988C272.599 35.436 272.875 34.976 273.227 34.608C273.579 34.24 273.983 33.968 274.439 33.792C274.903 33.608 275.399 33.516 275.927 33.516C276.439 33.516 276.919 33.604 277.367 33.78C277.815 33.948 278.207 34.208 278.543 34.56C278.879 34.904 279.139 35.336 279.323 35.856C279.515 36.376 279.611 36.98 279.611 37.668C279.611 38.612 279.439 39.416 279.095 40.08C278.759 40.736 278.299 41.24 277.715 41.592C277.131 41.936 276.471 42.108 275.735 42.108ZM275.795 41.328C276.291 41.328 276.747 41.204 277.163 40.956C277.587 40.7 277.923 40.308 278.171 39.78C278.427 39.252 278.555 38.568 278.555 37.728C278.555 36.928 278.435 36.276 278.195 35.772C277.963 35.268 277.643 34.896 277.235 34.656C276.835 34.416 276.383 34.296 275.879 34.296C275.391 34.296 274.939 34.42 274.523 34.668C274.115 34.908 273.787 35.292 273.539 35.82C273.291 36.34 273.167 37.02 273.167 37.86C273.167 38.66 273.283 39.316 273.515 39.828C273.755 40.34 274.071 40.72 274.463 40.968C274.863 41.208 275.307 41.328 275.795 41.328ZM284.724 37.776L284.796 37.668C285.34 37.676 285.8 37.764 286.176 37.932C286.552 38.092 286.832 38.324 287.016 38.628C287.208 38.932 287.304 39.3 287.304 39.732C287.304 40.18 287.196 40.576 286.98 40.92C286.772 41.256 286.44 41.52 285.984 41.712C285.536 41.904 284.96 42 284.256 42H280.92V41.484L282.108 41.232L281.952 41.448V34.2L282.144 34.428L280.92 34.2V33.684L282.9 33.624H284.388C284.964 33.624 285.444 33.704 285.828 33.864C286.212 34.024 286.5 34.256 286.692 34.56C286.884 34.864 286.98 35.236 286.98 35.676C286.98 36.252 286.804 36.72 286.452 37.08C286.1 37.44 285.524 37.672 284.724 37.776ZM284.184 34.344H282.756L282.936 34.164V37.536L282.756 37.368H283.884C284.356 37.368 284.748 37.308 285.06 37.188C285.372 37.068 285.604 36.892 285.756 36.66C285.908 36.428 285.984 36.144 285.984 35.808C285.984 35.48 285.916 35.208 285.78 34.992C285.644 34.776 285.444 34.616 285.18 34.512C284.916 34.4 284.584 34.344 284.184 34.344ZM284.184 41.28C284.656 41.28 285.048 41.216 285.36 41.088C285.672 40.96 285.904 40.78 286.056 40.548C286.216 40.308 286.296 40.016 286.296 39.672C286.296 39.336 286.224 39.052 286.08 38.82C285.944 38.58 285.74 38.396 285.468 38.268C285.204 38.14 284.884 38.076 284.508 38.076H282.756L282.936 37.884V41.448L282.756 41.28H284.184ZM292.164 42.108C291.476 42.108 290.856 41.952 290.304 41.64C289.76 41.328 289.328 40.86 289.008 40.236C288.696 39.604 288.54 38.824 288.54 37.896C288.54 37.168 288.636 36.532 288.828 35.988C289.028 35.436 289.304 34.976 289.656 34.608C290.008 34.24 290.412 33.968 290.868 33.792C291.332 33.608 291.828 33.516 292.356 33.516C292.868 33.516 293.348 33.604 293.796 33.78C294.244 33.948 294.636 34.208 294.972 34.56C295.308 34.904 295.568 35.336 295.752 35.856C295.944 36.376 296.04 36.98 296.04 37.668C296.04 38.612 295.868 39.416 295.524 40.08C295.188 40.736 294.728 41.24 294.144 41.592C293.56 41.936 292.9 42.108 292.164 42.108ZM292.224 41.328C292.72 41.328 293.176 41.204 293.592 40.956C294.016 40.7 294.352 40.308 294.6 39.78C294.856 39.252 294.984 38.568 294.984 37.728C294.984 36.928 294.864 36.276 294.624 35.772C294.392 35.268 294.072 34.896 293.664 34.656C293.264 34.416 292.812 34.296 292.308 34.296C291.82 34.296 291.368 34.42 290.952 34.668C290.544 34.908 290.216 35.292 289.968 35.82C289.72 36.34 289.596 37.02 289.596 37.86C289.596 38.66 289.712 39.316 289.944 39.828C290.184 40.34 290.5 40.72 290.892 40.968C291.292 41.208 291.736 41.328 292.224 41.328ZM297.35 42V41.484L298.514 41.244L298.382 41.412V34.2L298.55 34.416L297.35 34.2V33.684L299.354 33.624H303.146V35.724H302.546L302.306 34.224L302.546 34.356H299.186L299.366 34.176V41.412L299.222 41.244L300.626 41.484V42H297.35ZM307.117 42.108C306.429 42.108 305.809 41.952 305.257 41.64C304.713 41.328 304.281 40.86 303.961 40.236C303.649 39.604 303.493 38.824 303.493 37.896C303.493 37.168 303.589 36.532 303.781 35.988C303.981 35.436 304.257 34.976 304.609 34.608C304.961 34.24 305.365 33.968 305.821 33.792C306.285 33.608 306.781 33.516 307.309 33.516C307.821 33.516 308.301 33.604 308.749 33.78C309.197 33.948 309.589 34.208 309.925 34.56C310.261 34.904 310.521 35.336 310.705 35.856C310.897 36.376 310.993 36.98 310.993 37.668C310.993 38.612 310.821 39.416 310.477 40.08C310.141 40.736 309.681 41.24 309.097 41.592C308.513 41.936 307.853 42.108 307.117 42.108ZM307.177 41.328C307.673 41.328 308.129 41.204 308.545 40.956C308.969 40.7 309.305 40.308 309.553 39.78C309.809 39.252 309.937 38.568 309.937 37.728C309.937 36.928 309.817 36.276 309.577 35.772C309.345 35.268 309.025 34.896 308.617 34.656C308.217 34.416 307.765 34.296 307.261 34.296C306.773 34.296 306.321 34.42 305.905 34.668C305.497 34.908 305.169 35.292 304.921 35.82C304.673 36.34 304.549 37.02 304.549 37.86C304.549 38.66 304.665 39.316 304.897 39.828C305.137 40.34 305.453 40.72 305.845 40.968C306.245 41.208 306.689 41.328 307.177 41.328Z" fill="white"/>
<path d="M228.116 49.14L226.916 49.416L227.072 49.152V56.448L226.916 56.232L228.116 56.484V57H225.128V56.484L226.352 56.232L226.16 56.448V49.716L226.316 49.728L223.592 54.816L222.932 54.864L220.292 49.704L220.436 49.692V56.448L220.292 56.244L221.48 56.484V57H218.588V56.484L219.788 56.232L219.62 56.448V49.152L219.788 49.416L218.588 49.2V48.684L220.832 48.624L223.436 53.892H223.292L225.98 48.684L228.116 48.624V49.14ZM234.736 55.032H235.336V57H229.276V56.484L230.464 56.232L230.308 56.448V49.2L230.464 49.416L229.276 49.2V48.684L231.28 48.624H235.192V50.52H234.592L234.376 49.2L234.58 49.356H231.112L231.292 49.176V52.536L231.112 52.356H234.316V53.076H231.112L231.292 52.872V56.448L231.112 56.268H234.736L234.52 56.448L234.736 55.032ZM236.729 57V56.484L237.917 56.232L237.761 56.448V49.188L237.953 49.416L236.729 49.2V48.684L239.789 48.624V49.14L238.577 49.416L238.745 49.188V52.548L238.565 52.368H243.269L243.089 52.548V49.188L243.269 49.416L242.057 49.2V48.684L245.117 48.624V49.14L243.917 49.416L244.073 49.188V56.448L243.917 56.232L245.117 56.484V57H242.057V56.484L243.245 56.232L243.089 56.448V52.932L243.269 53.1H238.565L238.745 52.932V56.448L238.589 56.232L239.789 56.484V57H236.729ZM251.739 55.032H252.339V57H246.279V56.484L247.467 56.232L247.311 56.448V49.2L247.467 49.416L246.279 49.2V48.684L248.283 48.624H252.195V50.52H251.595L251.379 49.2L251.583 49.356H248.115L248.295 49.176V52.536L248.115 52.356H251.319V53.076H248.115L248.295 52.872V56.448L248.115 56.268H251.739L251.523 56.448L251.739 55.032ZM254.549 56.532L254.525 56.268H258.905L258.701 56.532V49.116L258.881 49.356L255.965 49.368L256.121 49.152C256.121 50.104 256.101 50.944 256.061 51.672C256.029 52.4 255.977 53.032 255.905 53.568C255.833 54.096 255.733 54.552 255.605 54.936C255.485 55.312 255.337 55.628 255.161 55.884C254.985 56.14 254.781 56.356 254.549 56.532ZM253.829 56.424C254.069 56.208 254.273 55.968 254.441 55.704C254.609 55.432 254.749 55.116 254.861 54.756C254.973 54.396 255.061 53.964 255.125 53.46C255.197 52.956 255.249 52.36 255.281 51.672C255.313 50.976 255.333 50.164 255.341 49.236L255.533 49.416L254.297 49.2V48.684L256.109 48.624H260.717V49.14L259.517 49.416L259.685 49.188V56.532L259.505 56.268L260.957 56.304V59.124H260.357L259.973 56.904L260.093 57H254.117L254.225 56.904L253.829 59.124H253.229L253.253 56.304L254.165 56.268L253.829 56.424ZM261.401 57V56.484L262.565 56.232L262.301 56.448L265.061 52.512L264.989 52.788L262.805 49.212L263.081 49.404L261.905 49.164V48.648L264.785 48.66V49.188L263.645 49.368L263.753 49.2L265.721 52.524L265.433 52.356H267.005L266.825 52.512V49.188L266.957 49.392L265.805 49.2V48.684L268.709 48.624V49.14L267.593 49.404L267.749 49.164V52.524L267.569 52.356H269.069L268.781 52.524L270.785 49.2L270.869 49.368L269.717 49.2V48.684L272.609 48.624V49.14L271.421 49.404L271.685 49.212L269.477 52.788V52.512L272.249 56.448L271.949 56.232L273.113 56.484V57H270.101V56.484L271.181 56.232L271.133 56.424L268.733 52.884L269.057 53.04H267.569L267.749 52.872V56.448L267.593 56.22L268.709 56.484V57H265.841V56.484L266.957 56.244L266.825 56.448V52.848L267.005 53.04H265.445L265.781 52.884L263.381 56.424L263.333 56.232L264.401 56.484V57H261.401ZM283.054 49.14L281.854 49.416L282.01 49.152V56.448L281.854 56.232L283.054 56.484V57H280.066V56.484L281.29 56.232L281.098 56.448V49.716L281.254 49.728L278.53 54.816L277.87 54.864L275.23 49.704L275.374 49.692V56.448L275.23 56.244L276.418 56.484V57H273.526V56.484L274.726 56.232L274.558 56.448V49.152L274.726 49.416L273.526 49.2V48.684L275.77 48.624L278.374 53.892H278.23L280.918 48.684L283.054 48.624V49.14ZM289.673 55.032H290.273V57H284.213V56.484L285.401 56.232L285.245 56.448V49.2L285.401 49.416L284.213 49.2V48.684L286.217 48.624H290.129V50.52H289.529L289.313 49.2L289.517 49.356H286.049L286.229 49.176V52.536L286.049 52.356H289.253V53.076H286.049L286.229 52.872V56.448L286.049 56.268H289.673L289.457 56.448L289.673 55.032ZM291.666 57V56.484L292.854 56.232L292.698 56.448V49.188L292.89 49.416L291.666 49.2V48.684L294.726 48.624V49.14L293.514 49.416L293.682 49.188V52.548L293.502 52.368H298.206L298.026 52.548V49.188L298.206 49.416L296.994 49.2V48.684L300.054 48.624V49.14L298.854 49.416L299.01 49.188V56.448L298.854 56.232L300.054 56.484V57H296.994V56.484L298.182 56.232L298.026 56.448V52.932L298.206 53.1H293.502L293.682 52.932V56.448L293.526 56.232L294.726 56.484V57H291.666ZM302.183 57V56.484L303.575 56.232L303.383 56.496V49.176L303.599 49.356H301.283L301.523 49.152L301.283 50.676H300.683V48.624H307.055V50.676H306.455L306.215 49.176L306.455 49.356H304.139L304.355 49.176V56.496L304.175 56.232L305.555 56.484V57H302.183ZM313.991 56.472L313.715 56.232L314.843 56.484V57H311.723V56.484L312.971 56.244L312.875 56.412L312.239 54.492L312.419 54.636H308.747L308.915 54.492L308.231 56.388L308.171 56.256L309.395 56.484V57H306.443V56.484L307.547 56.232L307.295 56.448L310.223 48.636L311.219 48.6L313.991 56.472ZM309.047 54.072L308.951 53.916H312.227L312.119 54.084L310.547 49.2L310.775 49.212L309.047 54.072Z" fill="white"/>
<path d="M31.1372 56.8927H39.814H45.2544C46.8736 51.1273 48.0632 38.7596 49.777 20.0653C47.6726 25.9173 42.8349 32.4782 42.8349 32.4782C42.8349 32.4782 38.3034 49.4979 31.1372 56.8927Z" fill="white"/>
<path d="M54.1544 -1.91556e-05C54.1594 3.41902 52.6902 12.1838 51.4532 15.1913L48.9739 56.8925H50.6809H54.2384L54.1544 -1.91556e-05Z" fill="white"/>
<path d="M67.6955 28.2287C68.0472 28.422 68.5271 28.5179 69.1342 28.5179C69.215 28.5179 69.2873 28.5144 69.3512 28.5063C69.4155 28.4983 69.4601 28.492 69.4864 28.4867C70.1172 28.4528 70.6109 28.1505 70.9681 27.5796C71.3252 27.0091 71.5038 26.318 71.5038 25.5074V25.3783C71.4908 24.8467 71.4381 24.4163 71.3453 24.0882C71.2529 23.7597 71.1002 23.4851 70.8877 23.265C70.6757 23.0445 70.3788 22.8526 69.9985 22.6883C69.6699 22.5816 69.3391 22.5276 69.0052 22.5276C68.4476 22.5276 68.0111 22.6557 67.6955 22.911V28.2287ZM66.0924 22.9463C65.7795 22.6883 65.3313 22.5593 64.7474 22.5593C64.4344 22.5593 64.1139 22.6124 63.7854 22.7195C63.2273 22.9566 62.8408 23.2717 62.626 23.6637C62.4109 24.0561 62.2957 24.6382 62.2801 25.4096C62.2801 25.4225 62.2747 25.4449 62.264 25.4761C62.2542 25.5074 62.2488 25.5283 62.2488 25.5386C62.2488 26.0573 62.3292 26.5403 62.4912 26.9872C62.6528 27.4345 62.8894 27.7965 63.201 28.0742C63.5122 28.3519 63.8778 28.4996 64.2974 28.5179C64.3184 28.5233 64.3568 28.53 64.413 28.5376C64.4688 28.5456 64.5376 28.5492 64.6179 28.5492C65.2465 28.5492 65.738 28.4541 66.0924 28.2639V22.9463ZM64.4889 20.5103H69.2949V21.0223C68.9195 21.0433 68.6418 21.0674 68.4619 21.0951C68.282 21.1223 68.1093 21.1946 67.9437 21.312C67.778 21.4294 67.6955 21.6102 67.6955 21.8553V22.3048C67.9928 22.1356 68.3218 22.0236 68.6825 21.9687C69.0436 21.9138 69.3114 21.8865 69.4864 21.8865C69.9686 21.8865 70.4252 21.9714 70.8569 22.141C71.2881 22.3102 71.6636 22.5481 71.9828 22.8543C72.3019 23.1606 72.5528 23.5262 72.7354 23.9512C72.918 24.3762 73.0091 24.831 73.0091 25.3158C73.0091 25.9859 72.8626 26.6158 72.5693 27.2064C72.276 27.7965 71.8564 28.2697 71.3105 28.6255C70.7641 28.9817 70.1248 29.1594 69.3923 29.1594L69.361 29.1282C69.1083 29.1282 68.8021 29.0974 68.4423 29.0362C68.0825 28.9751 67.8338 28.8987 67.6955 28.8072V29.4134C67.6955 29.8045 67.7539 30.0893 67.8713 30.2679C67.9887 30.4464 68.1486 30.5585 68.3503 30.604C68.5521 30.6495 68.8673 30.6803 69.2949 30.696V31.2084H64.4889V30.696C64.9268 30.6803 65.2465 30.6495 65.4469 30.604C65.6478 30.5585 65.8054 30.4473 65.9201 30.2696C66.0348 30.0924 66.0924 29.8072 66.0924 29.4134V28.8389C65.954 28.9273 65.7058 29.0027 65.3473 29.0657C64.9889 29.1282 64.6822 29.1594 64.4264 29.1594L64.3639 29.1907C63.634 29.1907 62.997 29.0126 62.4519 28.6568C61.9073 28.301 61.4917 27.8287 61.2047 27.2394C60.9181 26.6506 60.7748 26.0194 60.7748 25.3471C60.7748 24.698 60.9315 24.1123 61.2457 23.5896C61.56 23.0668 61.9872 22.6584 62.5283 22.3637C63.0693 22.0691 63.659 21.9218 64.2974 21.9218C65.0041 21.9218 65.6022 22.0602 66.0924 22.3361C66.0924 22.3231 66.0884 22.3062 66.0803 22.2856C66.0728 22.2646 66.0661 22.249 66.0611 22.2387C66.0482 21.7276 65.9214 21.4017 65.6817 21.2611C65.442 21.1205 65.0447 21.0406 64.4889 21.0223V20.5103Z" fill="white"/>
<path d="M81.8811 23.298L76.5675 29.3821C76.5675 29.7732 76.626 30.058 76.7434 30.2366C76.8604 30.4151 77.0202 30.5272 77.2224 30.5727C77.4242 30.6182 77.7389 30.649 78.1665 30.6647V31.1767H73.361V30.6647C73.7993 30.649 74.1181 30.6182 74.319 30.5727C74.5198 30.5272 74.6774 30.4156 74.7921 30.2383C74.9069 30.0611 74.964 29.7759 74.964 29.3821V22.2735C74.964 21.8829 74.9051 21.5977 74.7863 21.4195C74.6676 21.241 74.5073 21.1289 74.3056 21.083C74.1033 21.0374 73.7886 21.0066 73.361 20.9914V20.479H78.1665V20.9914C77.6322 20.9914 77.2166 21.0655 76.9193 21.2142C76.768 21.295 76.6715 21.4231 76.63 21.599C76.588 21.7749 76.5675 21.9999 76.5675 22.2735V28.4201L81.8811 22.2735C81.8811 21.9061 81.8226 21.632 81.7052 21.4503C81.5878 21.2696 81.4222 21.1508 81.2088 21.095C80.995 21.0392 80.6861 21.0044 80.2816 20.9914V20.479H85.0877V20.9914C84.527 20.9914 84.11 21.0655 83.8359 21.2142C83.6851 21.295 83.5886 21.4231 83.5467 21.599C83.5051 21.7749 83.4842 21.9999 83.4842 22.2735V29.3821C83.4842 29.7861 83.5467 30.0781 83.6721 30.258C83.7971 30.4379 83.9574 30.5468 84.1529 30.5843C84.3484 30.6223 84.66 30.649 85.0877 30.6647V31.1767H80.2816V30.6647C80.6963 30.6517 81.0093 30.6178 81.2204 30.5629C81.4316 30.5084 81.5941 30.391 81.7092 30.2111C81.824 30.0312 81.8811 29.7549 81.8811 29.3821V23.298Z" fill="white"/>
<path d="M94.0845 25.8593H88.7709V29.3823C88.7709 29.7734 88.8294 30.0582 88.9463 30.2367C89.0637 30.4153 89.2235 30.5274 89.4249 30.5729C89.6275 30.6184 89.9423 30.6488 90.3699 30.6648V31.1769H85.5643V30.6648C86.0027 30.6488 86.3214 30.6184 86.5223 30.5729C86.7232 30.5274 86.8808 30.4158 86.9955 30.2385C87.1102 30.0613 87.1674 29.7756 87.1674 29.3823V22.2737C87.1674 21.8827 87.1085 21.5978 86.9902 21.4193C86.871 21.2407 86.7107 21.1287 86.5089 21.0831C86.3067 21.0376 85.992 21.0068 85.5643 20.9912V20.4791H90.3699V20.9912C89.8347 20.9912 89.42 21.0653 89.1227 21.2139C88.9713 21.2947 88.8749 21.4233 88.8329 21.5992C88.7914 21.7751 88.7709 22.0001 88.7709 22.2737V25.1865H94.0845V22.2737C94.0845 21.9063 94.0256 21.6318 93.9077 21.4505C93.7912 21.2693 93.6256 21.151 93.4117 21.0947C93.1984 21.0389 92.889 21.0046 92.485 20.9912V20.4791H97.291V20.9912C96.7303 20.9912 96.313 21.0653 96.0393 21.2139C95.8884 21.2947 95.7916 21.4233 95.7496 21.5992C95.7085 21.7751 95.6875 22.0001 95.6875 22.2737V29.3823C95.6875 29.7863 95.7496 30.0783 95.8755 30.2582C96.0005 30.4381 96.1603 30.5466 96.3563 30.5845C96.5513 30.6224 96.8634 30.6488 97.291 30.6648V31.1769H92.485V30.6648C92.8997 30.6515 93.2126 30.618 93.4238 30.5631C93.6345 30.5086 93.7979 30.3908 93.9122 30.2113C94.0269 30.0314 94.0845 29.7551 94.0845 29.3823V25.8593Z" fill="white"/>
<path d="M104.751 26.8838L103.375 23.4897C103.119 22.8197 102.969 22.3925 102.925 22.2072C102.888 22.28 102.845 22.4094 102.796 22.5942L101.068 26.8838H104.751ZM103.664 20.3184L107.698 29.6091C107.866 29.9765 108.063 30.2443 108.29 30.4126C108.516 30.5805 108.821 30.6648 109.205 30.6648V31.1769H104.782V30.6648H105.138C105.756 30.6648 106.065 30.5046 106.065 30.1841C106.065 30.0484 106.022 29.8569 105.936 29.6091L105.072 27.5561H100.814L99.9805 29.6091C99.8948 29.8176 99.8515 29.9662 99.8515 30.0551C99.8515 30.4613 100.183 30.6648 100.845 30.6648H101.197V31.1769H97.4824V30.6648C97.9721 30.6648 98.3453 30.593 98.6025 30.4497C98.8591 30.3064 99.0721 30.026 99.2417 29.6091L103.086 20.3184H103.664Z" fill="white"/>
<path d="M118.01 25.8593H112.697V29.3823C112.697 29.7734 112.755 30.0582 112.872 30.2367C112.989 30.4153 113.149 30.5274 113.351 30.5729C113.553 30.6184 113.868 30.6488 114.296 30.6648V31.1769H109.49V30.6648C109.928 30.6488 110.247 30.6184 110.448 30.5729C110.649 30.5274 110.806 30.4158 110.921 30.2385C111.036 30.0613 111.093 29.7756 111.093 29.3823V22.2737C111.093 21.8827 111.034 21.5978 110.914 21.4193C110.797 21.2407 110.635 21.1287 110.434 21.0831C110.232 21.0376 109.918 21.0068 109.49 20.9912V20.4791H114.296V20.9912C113.76 20.9912 113.346 21.0653 113.048 21.2139C112.897 21.2947 112.801 21.4233 112.759 21.5992C112.717 21.7751 112.697 22.0001 112.697 22.2737V25.1865H118.01V22.2737C118.01 21.9063 117.951 21.6318 117.833 21.4505C117.717 21.2693 117.551 21.151 117.337 21.0947C117.124 21.0389 116.815 21.0046 116.411 20.9912V20.4791H121.217V20.9912C120.656 20.9912 120.239 21.0653 119.965 21.2139C119.814 21.2947 119.717 21.4233 119.675 21.5992C119.634 21.7751 119.613 22.0001 119.613 22.2737V29.3823C119.613 29.7863 119.675 30.0783 119.801 30.2582C119.926 30.4381 120.086 30.5466 120.282 30.5845C120.477 30.6224 120.789 30.6488 121.217 30.6648V31.1769H116.411V30.6648C116.825 30.6515 117.138 30.618 117.349 30.5631C117.56 30.5086 117.724 30.3908 117.838 30.2113C117.953 30.0314 118.01 29.7551 118.01 29.3823V25.8593Z" fill="white"/>
<path d="M131.946 20.5102L132.106 24.3538H131.594C131.424 23.6543 131.179 23.0396 130.857 22.5084C130.535 21.9771 130.116 21.5593 129.6 21.254C129.084 20.9482 128.467 20.7959 127.75 20.7959C126.919 20.7959 126.228 21.0361 125.68 21.5173C125.131 21.9986 124.73 22.6146 124.478 23.3655C124.224 24.1168 124.098 24.894 124.098 25.6971C124.098 26.5653 124.239 27.3791 124.52 28.1376C124.802 28.8969 125.242 29.5076 125.84 29.9705C126.438 30.4335 127.182 30.6647 128.071 30.6647C128.871 30.6647 129.641 30.4152 130.38 29.9156C131.118 29.4161 131.641 28.7898 131.946 28.0362L132.52 28.4862C132.25 29.096 131.86 29.6268 131.353 30.0781C130.846 30.529 130.269 30.8732 129.621 31.1107C128.973 31.3477 128.317 31.466 127.652 31.466C126.87 31.466 126.146 31.3294 125.481 31.0558C124.814 30.7821 124.242 30.3973 123.764 29.9022C123.286 29.4072 122.917 28.821 122.659 28.1447C122.401 27.468 122.272 26.739 122.272 25.9569C122.272 25.1855 122.401 24.4529 122.659 23.7597C122.917 23.0664 123.287 22.453 123.77 21.92C124.252 21.3865 124.829 20.9705 125.5 20.6705C126.171 20.371 126.899 20.221 127.684 20.221C128.932 20.221 130.086 20.5835 131.144 21.308C131.241 21.1522 131.358 20.8866 131.496 20.5102H131.946Z" fill="white"/>
<path d="M138.927 30.8916C139.855 30.8916 140.606 30.6528 141.178 30.1756C141.751 29.6983 142.16 29.0805 142.405 28.3216C142.65 27.5627 142.773 26.7324 142.773 25.8298C142.773 25.157 142.707 24.5222 142.575 23.9249C142.443 23.3277 142.23 22.7888 141.935 22.3076C141.641 21.8264 141.242 21.4438 140.742 21.1594C140.241 20.8755 139.637 20.7331 138.927 20.7331C138.225 20.7331 137.628 20.8755 137.133 21.1594C136.639 21.4438 136.245 21.8264 135.952 22.3076C135.659 22.7888 135.446 23.3285 135.314 23.9267C135.182 24.5254 135.117 25.1597 135.117 25.8298C135.117 26.7373 135.238 27.5712 135.481 28.3314C135.723 29.0917 136.129 29.7082 136.697 30.1818C137.266 30.655 138.009 30.8916 138.927 30.8916ZM138.927 31.4661C137.875 31.4661 136.914 31.2233 136.048 30.7371C135.181 30.251 134.5 29.5769 134.004 28.7154C133.507 27.8538 133.26 26.8918 133.26 25.828C133.26 24.7539 133.505 23.7888 133.996 22.9326C134.488 22.0764 135.165 21.4103 136.031 20.9345C136.896 20.4586 137.861 20.2211 138.927 20.2211C140.006 20.2211 140.98 20.4586 141.849 20.9345C142.718 21.4103 143.399 22.0764 143.891 22.9326C144.384 23.7888 144.63 24.7539 144.63 25.828C144.63 26.894 144.381 27.8578 143.883 28.7194C143.386 29.5809 142.7 30.2541 141.827 30.7389C140.954 31.2237 139.987 31.4661 138.927 31.4661Z" fill="white"/>
<path d="M148.665 25.6988V29.3821C148.665 29.8593 148.798 30.1817 149.062 30.3499C149.326 30.5178 149.717 30.6022 150.233 30.6022C150.952 30.6022 151.468 30.3665 151.781 29.8942C152.094 29.4228 152.25 28.8036 152.25 28.0371C152.25 27.3126 152.093 26.78 151.778 26.4399C151.462 26.0997 151.068 25.8912 150.594 25.8144C150.122 25.7372 149.478 25.6988 148.665 25.6988ZM148.665 25.1868C149.356 25.1868 149.91 25.1484 150.327 25.0712C150.744 24.9944 151.084 24.8056 151.346 24.5042C151.608 24.2033 151.738 23.7373 151.738 23.1065C151.738 22.4133 151.605 21.8923 151.338 21.5445C151.071 21.1963 150.606 21.0222 149.943 21.0222H148.665V25.1868ZM150.647 25.3783C151.244 25.4042 151.803 25.5261 152.325 25.7439C152.846 25.9613 153.269 26.2841 153.591 26.7117C153.915 27.1394 154.077 27.6568 154.077 28.2639C154.077 28.8402 153.935 29.3504 153.65 29.7946C153.366 30.2392 152.981 30.5807 152.495 30.8191C152.009 31.0575 151.479 31.1767 150.905 31.1767H145.458V30.6647C145.897 30.649 146.216 30.6187 146.417 30.5727C146.617 30.5272 146.775 30.4156 146.89 30.2383C147.004 30.0611 147.062 29.7759 147.062 29.3821V22.2735C147.062 21.8802 147.004 21.5945 146.89 21.4173C146.775 21.2401 146.617 21.1289 146.417 21.083C146.216 21.0374 145.897 21.0066 145.458 20.9914V20.479H150.647C151.14 20.479 151.606 20.5674 152.045 20.745C152.485 20.9222 152.837 21.1901 153.103 21.5486C153.369 21.9066 153.502 22.34 153.502 22.8485C153.502 23.6306 153.237 24.2199 152.708 24.6158C152.179 25.0118 151.492 25.2662 150.647 25.3783Z" fill="white"/>
<path d="M169.13 31.2083H164.325V30.6927C164.762 30.6771 165.08 30.6463 165.281 30.6008C165.481 30.5552 165.638 30.4441 165.752 30.2668C165.867 30.0896 165.924 29.8039 165.924 29.4106V22.3047C165.924 21.9136 165.867 21.6293 165.752 21.4507C165.638 21.2722 165.481 21.1601 165.281 21.1146C165.08 21.069 164.762 21.0382 164.325 21.0226V20.5101H169.13V21.0226C168.593 21.0226 168.188 21.0967 167.914 21.2454C167.745 21.3315 167.638 21.4619 167.594 21.6364C167.549 21.811 167.527 22.0337 167.527 22.3047V29.4106C167.527 29.8017 167.586 30.086 167.705 30.2646C167.824 30.4432 167.984 30.5552 168.186 30.6008C168.388 30.6463 168.703 30.6771 169.13 30.6927V31.2083ZM158.37 25.7304V29.3794C158.37 29.8561 158.502 30.178 158.767 30.3463C159.031 30.5141 159.421 30.5981 159.937 30.5981C160.658 30.5981 161.174 30.3624 161.486 29.891C161.799 29.4196 161.955 28.8008 161.955 28.0352C161.955 27.358 161.822 26.8509 161.554 26.5134C161.287 26.1764 160.94 25.9617 160.512 25.8688C160.085 25.7764 159.542 25.7304 158.882 25.7304H158.37ZM158.37 22.2734V25.1867C158.81 25.1867 159.123 25.1849 159.308 25.1809C159.493 25.1769 159.638 25.172 159.744 25.1653C159.85 25.1586 159.935 25.1555 160 25.1555C160.77 25.1555 161.437 25.284 162.002 25.5407C162.568 25.7974 163.003 26.1603 163.306 26.6295C163.61 27.0987 163.768 27.6437 163.781 28.2638C163.781 28.8401 163.639 29.3504 163.355 29.7945C163.071 30.2392 162.686 30.5807 162.2 30.819C161.714 31.0579 161.183 31.1771 160.61 31.1771H155.164V30.661C155.602 30.6454 155.921 30.615 156.121 30.5695C156.322 30.524 156.48 30.4124 156.595 30.2351C156.709 30.0579 156.767 29.7727 156.767 29.3794V22.273C156.767 21.8797 156.709 21.5945 156.595 21.4172C156.48 21.24 156.322 21.1284 156.121 21.0829C155.921 21.0373 155.602 21.0065 155.164 20.9914V20.4789H159.969V20.9914C159.432 20.9914 159.027 21.0655 158.753 21.2141C158.586 21.2949 158.48 21.4235 158.436 21.5994C158.392 21.7753 158.37 22.0002 158.37 22.2734Z" fill="white"/>
<path d="M175.824 18.4926C176.145 18.4926 176.46 18.4462 176.768 18.3538C177.078 18.2614 177.232 18.1043 177.232 17.8828C177.169 17.5623 177.138 17.3485 177.138 17.2413C177.138 17.0382 177.213 16.8583 177.363 16.7016C177.513 16.5454 177.693 16.4592 177.905 16.4436H177.971C178.106 16.4436 178.246 16.4744 178.389 16.5356C178.533 16.5967 178.638 16.6615 178.706 16.7293C178.855 16.9039 178.929 17.1396 178.929 17.4369C178.919 17.8828 178.73 18.2292 178.362 18.477C177.994 18.7248 177.574 18.8908 177.101 18.9756C176.628 19.06 176.192 19.1024 175.793 19.1024C175.399 19.1024 174.97 19.06 174.505 18.9756C174.04 18.8908 173.628 18.7248 173.269 18.477C172.911 18.2292 172.726 17.8828 172.716 17.4369C172.716 17.1396 172.791 16.9039 172.943 16.7293C173.133 16.5391 173.367 16.4436 173.646 16.4436H173.74C173.954 16.4592 174.136 16.5449 174.286 16.6999C174.436 16.8552 174.511 17.0356 174.511 17.2413C174.511 17.3717 174.478 17.5855 174.413 17.8828C174.413 18.1043 174.567 18.2614 174.876 18.3538C175.185 18.4462 175.501 18.4926 175.824 18.4926ZM178.256 23.2982L172.943 29.3823C172.943 29.7734 173.001 30.0582 173.118 30.2367C173.236 30.4153 173.396 30.5269 173.598 30.5729C173.799 30.6184 174.114 30.6488 174.542 30.6648V31.1769H169.736V30.6648C170.175 30.6488 170.494 30.6184 170.694 30.5729C170.895 30.5269 171.053 30.4158 171.167 30.2385C171.282 30.0613 171.339 29.7756 171.339 29.3823V22.2737C171.339 21.8827 171.28 21.5978 171.162 21.4193C171.043 21.2407 170.883 21.1287 170.68 21.0831C170.479 21.0376 170.164 21.0068 169.736 20.9912V20.4791H174.542V20.9912C174.007 20.9912 173.592 21.0653 173.295 21.2139C173.143 21.2947 173.047 21.4233 173.005 21.5992C172.963 21.7751 172.943 22.0001 172.943 22.2737V28.4203L178.256 22.2737C178.256 21.9059 178.197 21.6318 178.08 21.4505C177.963 21.2693 177.797 21.151 177.584 21.0947C177.37 21.0389 177.061 21.0041 176.657 20.9912V20.4791H181.463V20.9912C180.902 20.9912 180.485 21.0653 180.211 21.2139C180.06 21.2947 179.963 21.4233 179.922 21.5992C179.88 21.7751 179.859 22.0001 179.859 22.2737V29.3823C179.859 29.7863 179.922 30.0783 180.047 30.2577C180.172 30.4381 180.333 30.5466 180.528 30.5845C180.724 30.6224 181.035 30.6488 181.463 30.6648V31.1769H176.657V30.6648C177.072 30.6515 177.385 30.618 177.596 30.5631C177.806 30.5086 177.97 30.3908 178.084 30.2109C178.199 30.0314 178.256 29.7551 178.256 29.3823V23.2982Z" fill="white"/>
<path d="M66.6637 47.1101C66.6744 47.1101 66.5539 47.3065 66.303 47.6993C66.1669 47.8489 66.0249 47.9792 65.878 48.0904C65.7312 48.2011 65.6214 48.2792 65.549 48.3247C65.3223 48.4341 65.0375 48.489 64.6955 48.489C64.3558 48.489 64.071 48.4118 63.8415 48.2564C63.7772 48.2247 63.6844 48.1176 63.563 47.9359C63.4411 47.7542 63.3804 47.5658 63.3804 47.3703C63.3804 47.173 63.4563 46.9766 63.6089 46.7815C63.7397 46.5833 63.9375 46.4846 64.2022 46.4846C64.2879 46.4846 64.4187 46.5061 64.5951 46.5489C64.5817 46.5489 64.654 46.6092 64.8116 46.7293C64.9692 46.8494 65.1272 46.9096 65.2848 46.9096C65.3142 46.9096 65.3615 46.9154 65.4267 46.9275C65.4923 46.9395 65.5441 46.9458 65.5812 46.9458C65.7361 46.9458 65.878 46.8788 66.0062 46.7453C66.0919 46.6436 66.2079 46.4726 66.3553 46.232C66.5021 45.9914 66.5838 45.8458 66.5994 45.7949L62.1336 39.0278C61.9921 38.8569 61.8617 38.7006 61.743 38.5587C61.6238 38.4171 61.5148 38.3033 61.4162 38.218C61.3171 38.1323 61.2015 38.0654 61.0693 38.0176C60.9367 37.9694 60.7769 37.9453 60.5903 37.9453V37.4199H65.12V37.9453H64.7593C64.1237 37.9453 63.8054 38.1096 63.8054 38.4386C63.8054 38.5613 63.8496 38.7578 63.9375 39.0278L67.4217 44.416L70.0475 39.0278C70.1354 38.8006 70.1796 38.6363 70.1796 38.5346C70.1796 38.2917 70.081 38.1323 69.8832 38.0578C69.6855 37.9828 69.4341 37.9453 69.1292 37.9453H68.8007V37.4199H72.5773V37.9453H72.4447C71.6724 38.0332 71.1247 38.3944 70.801 39.0278L66.6637 47.1101Z" fill="white"/>
<path d="M81.6379 42.9365H76.1895V46.5489C76.1895 46.9498 76.2497 47.2417 76.3698 47.4247C76.4903 47.6078 76.6537 47.7229 76.8609 47.7694C77.068 47.8162 77.3907 47.8475 77.8291 47.864V48.389H72.9021V47.864C73.3512 47.8475 73.6784 47.8162 73.8842 47.7694C74.09 47.7229 74.2516 47.6087 74.3694 47.427C74.4869 47.2448 74.5458 46.9524 74.5458 46.5489V39.2604C74.5458 38.8595 74.4851 38.5675 74.3632 38.3845C74.2418 38.2015 74.077 38.0863 73.8704 38.0394C73.6632 37.9926 73.3405 37.9613 72.9021 37.9453V37.4203H77.8291V37.9453C77.2814 37.9453 76.855 38.0216 76.5506 38.1738C76.3952 38.2568 76.2966 38.3885 76.2537 38.5689C76.2109 38.7492 76.1895 38.9796 76.1895 39.2604V42.2473H81.6379V39.2604C81.6379 38.8832 81.5776 38.6024 81.4575 38.4167C81.337 38.2305 81.1674 38.1091 80.9482 38.0515C80.729 37.9939 80.4125 37.9586 79.9982 37.9453V37.4203H84.9252V37.9453C84.3507 37.9453 83.923 38.0216 83.6422 38.1738C83.4873 38.2568 83.3882 38.3885 83.3458 38.5689C83.303 38.7492 83.2815 38.9796 83.2815 39.2604V46.5489C83.2815 46.9631 83.3458 47.2622 83.4739 47.4471C83.6021 47.6314 83.7668 47.743 83.9672 47.7819C84.1677 47.8203 84.4868 47.8475 84.9252 47.864V48.389H79.9982V47.864C80.4232 47.8502 80.7437 47.8158 80.9602 47.7595C81.1767 47.7033 81.3437 47.5832 81.4611 47.3988C81.5789 47.2145 81.6379 46.931 81.6379 46.5489V42.9365Z" fill="white"/>
<path d="M94.15 40.3106L88.7015 46.5487C88.7015 46.9496 88.7618 47.2415 88.8819 47.425C89.0024 47.608 89.1662 47.7228 89.3734 47.7692C89.5805 47.8161 89.9028 47.8477 90.3416 47.8638V48.3888H85.4142V47.8638C85.8633 47.8477 86.1905 47.8161 86.3967 47.7692C86.6025 47.7228 86.7641 47.6085 86.8815 47.4268C86.9985 47.2451 87.0579 46.9523 87.0579 46.5487V39.2602C87.0579 38.8593 86.9971 38.5674 86.8757 38.3843C86.7539 38.2013 86.5896 38.0861 86.3824 38.0397C86.1753 37.9928 85.8526 37.9611 85.4142 37.9455V37.4201H90.3416V37.9455C89.7935 37.9455 89.3671 38.0214 89.0622 38.1736C88.9073 38.2567 88.8087 38.3884 88.7658 38.5687C88.7234 38.749 88.7015 38.9798 88.7015 39.2602V45.5626L94.15 39.2602C94.15 38.8834 94.0897 38.6022 93.9696 38.4165C93.8491 38.2308 93.6794 38.1089 93.4603 38.0513C93.2415 37.9942 92.925 37.9585 92.5103 37.9455V37.4201H97.4373V37.9455C96.8628 37.9455 96.4351 38.0214 96.1543 38.1736C95.9999 38.2567 95.9008 38.3884 95.8579 38.5687C95.8146 38.749 95.7941 38.9798 95.7941 39.2602V46.5487C95.7941 46.963 95.8579 47.2625 95.986 47.4469C96.1141 47.6312 96.2793 47.7428 96.4798 47.7817C96.6797 47.8201 96.9994 47.8477 97.4373 47.8638V48.3888H92.5103V47.8638C92.9353 47.8504 93.2562 47.8156 93.4723 47.7594C93.6893 47.7036 93.8562 47.583 93.9732 47.3987C94.0915 47.2143 94.15 46.9308 94.15 46.5487V40.3106Z" fill="white"/>
<path d="M101.214 42.7722V46.5488C101.214 47.0381 101.35 47.3684 101.621 47.5412C101.893 47.7135 102.293 47.7997 102.822 47.7997C103.559 47.7997 104.089 47.5577 104.409 47.0738C104.73 46.5903 104.89 45.9555 104.89 45.1699C104.89 44.4266 104.729 43.8806 104.405 43.532C104.082 43.1829 103.678 42.9691 103.192 42.8905C102.708 42.8115 102.048 42.7722 101.214 42.7722ZM101.214 42.2472C101.922 42.2472 102.49 42.2075 102.917 42.1289C103.346 42.0499 103.694 41.8562 103.962 41.5473C104.231 41.2388 104.365 40.7611 104.365 40.1143C104.365 39.4032 104.228 38.8693 103.954 38.5126C103.68 38.1559 103.204 37.9773 102.526 37.9773H101.214V42.2472ZM103.246 42.4436C103.859 42.4704 104.432 42.5954 104.966 42.8186C105.501 43.0418 105.934 43.3722 106.266 43.8106C106.597 44.2489 106.763 44.7797 106.763 45.4024C106.763 45.993 106.617 46.5162 106.326 46.9716C106.034 47.4274 105.639 47.7773 105.141 48.022C104.642 48.2666 104.099 48.3889 103.511 48.3889H97.9266V47.8639C98.3757 47.8479 98.7029 47.8162 98.9087 47.7693C99.1145 47.7229 99.2761 47.6086 99.394 47.4269C99.5114 47.2452 99.5703 46.9524 99.5703 46.5488V39.2603C99.5703 38.8568 99.5114 38.5639 99.394 38.3822C99.2761 38.2005 99.1145 38.0863 98.9087 38.0394C98.7029 37.9925 98.3757 37.9613 97.9266 37.9452V37.4202H103.246C103.752 37.4202 104.229 37.5108 104.68 37.693C105.13 37.8747 105.491 38.1492 105.764 38.5166C106.037 38.8844 106.173 39.3286 106.173 39.8496C106.173 40.6513 105.902 41.2558 105.359 41.6615C104.817 42.0678 104.113 42.3285 103.246 42.4436Z" fill="white"/>
<path d="M115.959 37.4201L116.252 40.1142H115.759C115.598 39.4432 115.349 38.9196 115.011 38.5428C114.673 38.1656 114.19 37.9777 113.562 37.9777H111.165V42.2792H112.215C113.185 42.2792 113.689 41.7753 113.726 40.7677H114.251V44.476H113.726C113.654 43.8801 113.528 43.4631 113.347 43.2252C113.167 42.9873 112.789 42.8685 112.215 42.8685H111.165V46.3831C111.165 46.9264 111.313 47.3036 111.61 47.5147C111.906 47.7259 112.338 47.8317 112.904 47.8317C113.733 47.8317 114.392 47.7509 114.881 47.5888C115.37 47.4272 115.784 47.0585 116.124 46.4835C116.426 45.8737 116.589 45.3804 116.613 45.0028H117.106L116.878 48.3888H107.877V47.8638C108.326 47.8477 108.654 47.8165 108.86 47.7696C109.066 47.7228 109.227 47.6085 109.345 47.4268C109.462 47.2451 109.52 46.9523 109.52 46.5487V39.2602C109.52 38.8566 109.462 38.5642 109.345 38.3821C109.227 38.2009 109.066 38.0861 108.86 38.0397C108.654 37.9928 108.326 37.9611 107.877 37.9455V37.4201H115.959Z" fill="white"/>
<path d="M120.786 42.676H122.033C122.755 42.676 123.312 42.4604 123.707 42.0283C124.101 41.5971 124.298 41.0136 124.298 40.2784C124.298 39.6985 124.208 39.2316 124.025 38.8776C123.844 38.5231 123.571 38.2687 123.206 38.1137C122.841 37.9588 122.372 37.8812 121.8 37.8812C121.677 37.8812 121.504 37.8865 121.28 37.8972C121.055 37.908 120.89 37.9133 120.786 37.9133V42.676ZM120.786 43.1689V46.55C120.786 46.9504 120.847 47.2424 120.967 47.4249C121.087 47.608 121.251 47.7227 121.458 47.7696C121.665 47.8164 121.988 47.8477 122.426 47.8638V48.3887H117.499V47.8638C117.948 47.8477 118.275 47.8164 118.481 47.7696C118.687 47.7227 118.848 47.6084 118.966 47.4267C119.083 47.245 119.143 46.9522 119.143 46.5486V39.2601C119.143 38.8593 119.082 38.5673 118.96 38.3843C118.839 38.2012 118.674 38.0861 118.467 38.0396C118.26 37.9928 117.937 37.9611 117.499 37.9455V37.42H121.343C122.3 37.42 123.101 37.4723 123.747 37.5767C124.392 37.6807 124.941 37.9468 125.392 38.3745C125.844 38.8021 126.07 39.4583 126.07 40.3431C126.07 40.8538 125.949 41.3257 125.707 41.7587C125.466 42.1917 125.127 42.5296 124.691 42.7729C124.191 43.0372 123.415 43.1689 122.362 43.1689H120.786Z" fill="white"/>
<path d="M136.943 37.4521L137.107 41.393H136.582C136.408 40.6761 136.156 40.0453 135.826 39.5007C135.496 38.9565 135.067 38.5275 134.537 38.2146C134.008 37.9012 133.376 37.745 132.641 37.745C131.788 37.745 131.081 37.9914 130.518 38.4847C129.956 38.9779 129.545 39.6096 129.286 40.3801C129.026 41.1497 128.897 41.9466 128.897 42.7702C128.897 43.6608 129.041 44.4947 129.329 45.2728C129.618 46.0508 130.069 46.6776 130.683 47.1521C131.296 47.6267 132.059 47.8637 132.97 47.8637C133.79 47.8637 134.58 47.6079 135.337 47.0959C136.095 46.5839 136.63 45.9415 136.943 45.1687L137.532 45.6299C137.254 46.2553 136.855 46.7995 136.336 47.262C135.816 47.7244 135.223 48.0775 134.559 48.3208C133.895 48.5641 133.222 48.6855 132.541 48.6855C131.739 48.6855 130.997 48.5454 130.314 48.2646C129.631 47.9838 129.044 47.5896 128.554 47.082C128.063 46.5745 127.686 45.9736 127.421 45.2799C127.156 44.5862 127.024 43.8389 127.024 43.0367C127.024 42.2457 127.156 41.4948 127.421 40.7837C127.686 40.073 128.065 39.444 128.56 38.8976C129.054 38.3507 129.645 37.924 130.334 37.6164C131.022 37.3093 131.768 37.1553 132.573 37.1553C133.853 37.1553 135.036 37.5271 136.121 38.2699C136.22 38.1106 136.34 37.8378 136.482 37.4521H136.943Z" fill="white"/>
<path d="M146.661 40.3106L141.212 46.5487C141.212 46.9496 141.273 47.2415 141.393 47.425C141.513 47.608 141.677 47.7228 141.884 47.7692C142.091 47.8161 142.414 47.8477 142.852 47.8638V48.3888H137.925V47.8638C138.374 47.8477 138.701 47.8161 138.907 47.7692C139.113 47.7228 139.275 47.6085 139.392 47.4268C139.51 47.2451 139.569 46.9523 139.569 46.5487V39.2602C139.569 38.8593 139.508 38.5674 139.386 38.3843C139.265 38.2013 139.1 38.0861 138.893 38.0397C138.686 37.9928 138.363 37.9611 137.925 37.9455V37.4201H142.852V37.9455C142.304 37.9455 141.878 38.0214 141.574 38.1736C141.418 38.2567 141.319 38.3884 141.277 38.5687C141.234 38.749 141.212 38.9798 141.212 39.2602V45.5626L146.661 39.2602C146.661 38.8834 146.601 38.6022 146.48 38.4165C146.36 38.2308 146.19 38.1089 145.971 38.0513C145.752 37.9942 145.435 37.9585 145.021 37.9455V37.4201H149.948V37.9455C149.374 37.9455 148.946 38.0214 148.665 38.1736C148.51 38.2567 148.411 38.3884 148.368 38.5687C148.325 38.749 148.304 38.9798 148.304 39.2602V46.5487C148.304 46.963 148.368 47.2625 148.497 47.4469C148.625 47.6312 148.79 47.7428 148.99 47.7817C149.191 47.8201 149.51 47.8477 149.948 47.8638V48.3888H145.021V47.8638C145.446 47.8504 145.767 47.8156 145.983 47.7594C146.2 47.7036 146.367 47.583 146.484 47.3987C146.602 47.2143 146.661 46.9308 146.661 46.5487V40.3106Z" fill="white"/>
<path d="M157.926 48.3889H153.035V47.8639C153.48 47.8501 153.808 47.8175 154.02 47.7657C154.231 47.7135 154.394 47.5965 154.508 47.4149C154.622 47.2332 154.679 46.9443 154.679 46.5488V37.9773H152.837C152.203 37.9773 151.731 38.1559 151.422 38.5126C151.114 38.8693 150.863 39.3911 150.67 40.0781H150.144L150.437 37.4202H160.52L160.817 40.0781H160.323C160.182 39.629 160.031 39.2563 159.87 38.9594C159.71 38.663 159.49 38.4251 159.211 38.2461C158.932 38.0671 158.569 37.9773 158.122 37.9773H156.287V46.5488C156.287 46.947 156.349 47.2381 156.473 47.4224C156.597 47.6073 156.763 47.7229 156.97 47.7693C157.177 47.8162 157.496 47.8479 157.926 47.8639V48.3889Z" fill="white"/>
<path d="M169.16 37.4201L169.452 40.1142H168.959C168.798 39.4432 168.549 38.9196 168.211 38.5428C167.873 38.1656 167.39 37.9777 166.762 37.9777H164.365V42.2792H165.415C166.385 42.2792 166.889 41.7753 166.927 40.7677H167.452V44.476H166.927C166.854 43.8801 166.728 43.4631 166.547 43.2252C166.367 42.9873 165.99 42.8685 165.415 42.8685H164.365V46.3831C164.365 46.9264 164.513 47.3036 164.81 47.5147C165.106 47.7259 165.538 47.8317 166.104 47.8317C166.933 47.8317 167.592 47.7509 168.081 47.5888C168.57 47.4272 168.984 47.0585 169.324 46.4835C169.626 45.8737 169.789 45.3804 169.813 45.0028H170.306L170.078 48.3888H161.077V47.8638C161.526 47.8477 161.854 47.8165 162.059 47.7696C162.265 47.7228 162.427 47.6085 162.545 47.4268C162.662 47.2451 162.721 46.9523 162.721 46.5487V39.2602C162.721 38.8566 162.662 38.5642 162.545 38.3821C162.427 38.2009 162.265 38.0861 162.059 38.0397C161.854 37.9928 161.526 37.9611 161.077 37.9455V37.4201H169.16Z" fill="white"/>
<path d="M178.188 48.3889H173.297V47.8639C173.742 47.8501 174.069 47.8175 174.282 47.7657C174.493 47.7135 174.656 47.5965 174.77 47.4149C174.884 47.2332 174.941 46.9443 174.941 46.5488V37.9773H173.099C172.465 37.9773 171.993 38.1559 171.684 38.5126C171.375 38.8693 171.125 39.3911 170.932 40.0781H170.406L170.699 37.4202H180.782L181.079 40.0781H180.585C180.444 39.629 180.293 39.2563 180.132 38.9594C179.972 38.663 179.752 38.4251 179.473 38.2461C179.193 38.0671 178.83 37.9773 178.384 37.9773H176.548V46.5488C176.548 46.947 176.61 47.2381 176.735 47.4224C176.858 47.6073 177.025 47.7229 177.231 47.7693C177.439 47.8162 177.758 47.8479 178.188 47.8639V48.3889Z" fill="white"/>
<path d="M63.5995 56.8925H63.1169V53.6448H61.3219V56.8925H60.842V53.2524H63.5995V56.8925Z" fill="white"/>
<path d="M64.9523 55.0747H65.8147C66.0714 55.0747 66.2683 55.0145 66.4049 54.8931C66.5415 54.7721 66.6098 54.5971 66.6098 54.3685C66.6098 54.1516 66.5415 53.9779 66.4049 53.8476C66.2683 53.7172 66.0803 53.6498 65.8424 53.6444H64.9523V55.0747ZM64.9523 55.4671V56.8925H64.4719V53.2521H65.8147C66.2129 53.2521 66.525 53.3538 66.7508 53.5574C66.9767 53.7605 67.0901 54.0297 67.0901 54.365C67.0901 54.7181 66.9794 54.9904 66.7584 55.181C66.5379 55.372 66.2214 55.4671 65.8098 55.4671H64.9523Z" fill="white"/>
<path d="M69.9975 53.2524H70.4774V56.8924H69.9975V54.0876L68.2047 56.8924H67.7222V53.2524H68.2047V56.0576L69.9975 53.2524Z" fill="white"/>
<path d="M75.4003 56.8925H74.9177V53.6448H73.1227V56.8925H72.6428V53.2524H75.4003V56.8925Z" fill="white"/>
<path d="M76.753 55.0747H77.6155C77.8722 55.0747 78.0691 55.0145 78.2057 54.8931C78.3423 54.7721 78.4106 54.5971 78.4106 54.3685C78.4106 54.1516 78.3423 53.9779 78.2057 53.8476C78.0691 53.7172 77.8811 53.6498 77.6432 53.6444H76.753V55.0747ZM76.753 55.4671V56.8925H76.2727V53.2521H77.6155C78.0137 53.2521 78.3257 53.3538 78.5516 53.5574C78.7775 53.7605 78.8909 54.0297 78.8909 54.365C78.8909 54.7181 78.7802 54.9904 78.5592 55.181C78.3387 55.372 78.0222 55.4671 77.6106 55.4671H76.753Z" fill="white"/>
<path d="M79.7881 55.5474H81.0255L80.4055 53.8448L79.7881 55.5474ZM81.1679 55.9398H79.643L79.3006 56.8924H78.8055L80.1957 53.2524H80.6157L82.0081 56.8924H81.5157L81.1679 55.9398Z" fill="white"/>
<path d="M82.9784 55.1899V56.5001H83.7708C83.994 56.5001 84.1703 56.442 84.2998 56.3264C84.4288 56.2103 84.4935 56.051 84.4935 55.8474C84.4935 55.409 84.2551 55.1899 83.7783 55.1899H82.9784ZM82.9784 54.8046H83.7033C83.9136 54.8046 84.0815 54.7524 84.2069 54.647C84.3332 54.5417 84.3957 54.3988 84.3957 54.2185C84.3957 54.018 84.3372 53.8725 84.2207 53.7814C84.1042 53.6904 83.927 53.6448 83.6882 53.6448H82.9784V54.8046ZM82.498 56.8925V53.2524H83.6882C84.0832 53.2524 84.3806 53.3337 84.5796 53.4971C84.7787 53.6605 84.8783 53.9024 84.8783 54.2225C84.8783 54.3921 84.8301 54.5426 84.7337 54.6734C84.6368 54.8046 84.5051 54.9055 84.3381 54.9774C84.535 55.0323 84.6904 55.1367 84.8046 55.2912C84.9189 55.4452 84.9761 55.6291 84.9761 55.8429C84.9761 56.1688 84.8703 56.426 84.6587 56.6126C84.4466 56.7992 84.1475 56.8925 83.7609 56.8925H82.498Z" fill="white"/>
<path d="M87.9813 53.2524H88.4612V56.8924H87.9813V54.0876L86.1885 56.8924H85.7059V53.2524H86.1885V56.0576L87.9813 53.2524Z" fill="white"/>
<path d="M91.7788 53.6447H90.6088V56.8923H90.1315V53.6447H88.9637V53.2523H91.7788V53.6447Z" fill="white"/>
<path d="M94.3766 55.2099H92.799V56.5001H94.6315V56.8925H92.3191V53.2524H94.6069V53.6448H92.799V54.8175H94.3766V55.2099Z" fill="white"/>
<path d="M97.9818 53.2524V56.8924H97.502V53.6448H96.1967L96.1315 55.0885C96.1069 55.5724 96.0569 55.9357 95.9828 56.1795C95.9087 56.4232 95.7998 56.6018 95.657 56.7161C95.5137 56.8303 95.3217 56.8893 95.082 56.8924H94.924V56.5L95.0244 56.4951C95.1793 56.4835 95.2985 56.433 95.382 56.3438C95.465 56.2545 95.5284 56.1125 95.5721 55.9174C95.615 55.7224 95.6462 55.4224 95.6645 55.0175L95.7395 53.2524H97.9818Z" fill="white"/>
<path d="M99.3172 55.13V56.5H100.195C100.433 56.5 100.618 56.4366 100.751 56.3098C100.884 56.1826 100.95 56.0125 100.95 55.7987C100.95 55.5933 100.886 55.4313 100.758 55.313C100.631 55.1943 100.45 55.1331 100.215 55.13H99.3172ZM99.3172 54.7376H100.222C100.602 54.7425 100.899 54.8398 101.112 55.03C101.326 55.2201 101.432 55.4782 101.432 55.8049C101.432 56.1335 101.325 56.3946 101.11 56.5902C100.894 56.7853 100.601 56.8861 100.23 56.8924H98.8373V53.2524H99.3172V54.7376Z" fill="white"/>
<path d="M104.742 55.7375C104.697 56.1223 104.555 56.4196 104.316 56.6289C104.077 56.8379 103.759 56.9423 103.362 56.9423C102.932 56.9423 102.588 56.7883 102.329 56.4798C102.069 56.1718 101.94 55.7589 101.94 55.2424V54.8924C101.94 54.554 101.999 54.2567 102.121 53.9996C102.242 53.7434 102.413 53.546 102.635 53.4086C102.856 53.2711 103.113 53.2023 103.405 53.2023C103.791 53.2023 104.102 53.3103 104.335 53.526C104.568 53.742 104.704 54.0407 104.742 54.4223H104.26C104.218 54.1313 104.128 53.921 103.989 53.7902C103.849 53.6599 103.654 53.5947 103.405 53.5947C103.098 53.5947 102.857 53.7081 102.684 53.9349C102.509 54.1621 102.423 54.4848 102.423 54.9036V55.2562C102.423 55.6518 102.505 55.966 102.669 56.1999C102.835 56.4334 103.065 56.5499 103.362 56.5499C103.629 56.5499 103.834 56.4897 103.976 56.3687C104.119 56.2482 104.214 56.0375 104.26 55.7375H104.742Z" fill="white"/>
<path d="M107.84 53.6447H106.67V56.8923H106.193V53.6447H105.025V53.2523H107.84V53.6447Z" fill="white"/>
<path d="M108.86 55.1899V56.5001H109.652C109.876 56.5001 110.052 56.442 110.181 56.3264C110.31 56.2103 110.376 56.051 110.376 55.8474C110.376 55.409 110.137 55.1899 109.66 55.1899H108.86ZM108.86 54.8046H109.585C109.795 54.8046 109.963 54.7524 110.089 54.647C110.215 54.5417 110.278 54.3988 110.278 54.2185C110.278 54.018 110.219 53.8725 110.102 53.7814C109.986 53.6904 109.809 53.6448 109.57 53.6448H108.86V54.8046ZM108.38 56.8925V53.2524H109.57C109.965 53.2524 110.262 53.3337 110.461 53.4971C110.66 53.6605 110.76 53.9024 110.76 54.2225C110.76 54.3921 110.712 54.5426 110.615 54.6734C110.518 54.8046 110.387 54.9055 110.22 54.9774C110.417 55.0323 110.572 55.1367 110.687 55.2912C110.801 55.4452 110.858 55.6291 110.858 55.8429C110.858 56.1688 110.752 56.426 110.54 56.6126C110.328 56.7992 110.029 56.8925 109.643 56.8925H108.38Z" fill="white"/>
<path d="M113.625 55.2099H112.048V56.5001H113.88V56.8925H111.568V53.2524H113.856V53.6448H112.048V54.8175H113.625V55.2099Z" fill="white"/>
<path d="M116.225 55.0747H117.088C117.345 55.0747 117.541 55.0145 117.678 54.8931C117.815 54.7721 117.883 54.5971 117.883 54.3685C117.883 54.1516 117.815 53.9779 117.678 53.8476C117.541 53.7172 117.354 53.6498 117.116 53.6444H116.225V55.0747ZM116.225 55.4671V56.8925H115.745V53.2521H117.088C117.486 53.2521 117.799 53.3538 118.024 53.5574C118.25 53.7605 118.363 54.0297 118.363 54.365C118.363 54.7181 118.253 54.9904 118.032 55.181C117.811 55.372 117.495 55.4671 117.083 55.4671H116.225Z" fill="white"/>
<path d="M121.298 54.9549C121.298 54.5232 121.212 54.192 121.039 53.9608C120.865 53.73 120.623 53.6148 120.311 53.6148C120.007 53.6148 119.769 53.73 119.595 53.9608C119.42 54.192 119.331 54.5121 119.326 54.9223V55.1897C119.326 55.608 119.414 55.937 119.59 56.1763C119.765 56.4151 120.007 56.5352 120.316 56.5352C120.626 56.5352 120.866 56.4223 121.036 56.1964C121.206 55.9705 121.293 55.6464 121.298 55.2245V54.9549ZM121.776 55.1897C121.776 55.5464 121.716 55.8575 121.596 56.1236C121.475 56.3897 121.306 56.5923 121.086 56.7325C120.866 56.8722 120.609 56.9423 120.316 56.9423C120.029 56.9423 119.775 56.8718 119.553 56.7312C119.332 56.5906 119.16 56.3897 119.037 56.1285C118.915 55.8678 118.852 55.5656 118.849 55.2223V54.9598C118.849 54.6098 118.908 54.3005 119.031 54.0322C119.152 53.7639 119.324 53.5585 119.547 53.4161C119.769 53.2733 120.024 53.2023 120.311 53.2023C120.602 53.2023 120.86 53.2724 121.082 53.4135C121.305 53.5545 121.475 53.7585 121.596 54.0259C121.716 54.2938 121.776 54.6049 121.776 54.9598V55.1897Z" fill="white"/>
<path d="M125.174 55.7375C125.128 56.1223 124.986 56.4196 124.748 56.6289C124.508 56.8379 124.191 56.9423 123.794 56.9423C123.363 56.9423 123.019 56.7883 122.76 56.4798C122.501 56.1718 122.371 55.7589 122.371 55.2424V54.8924C122.371 54.554 122.431 54.2567 122.552 53.9996C122.673 53.7434 122.844 53.546 123.066 53.4086C123.287 53.2711 123.545 53.2023 123.836 53.2023C124.223 53.2023 124.532 53.3103 124.766 53.526C124.999 53.742 125.135 54.0407 125.174 54.4223H124.691C124.649 54.1313 124.559 53.921 124.42 53.7902C124.281 53.6599 124.086 53.5947 123.836 53.5947C123.529 53.5947 123.289 53.7081 123.115 53.9349C122.941 54.1621 122.854 54.4848 122.854 54.9036V55.2562C122.854 55.6518 122.936 55.966 123.101 56.1999C123.266 56.4334 123.497 56.5499 123.794 56.5499C124.06 56.5499 124.265 56.4897 124.407 56.3687C124.55 56.2482 124.644 56.0375 124.691 55.7375H125.174Z" fill="white"/>
<path d="M128.506 55.7375C128.461 56.1223 128.319 56.4196 128.081 56.6289C127.841 56.8379 127.523 56.9423 127.127 56.9423C126.696 56.9423 126.352 56.7883 126.093 56.4798C125.834 56.1718 125.704 55.7589 125.704 55.2424V54.8924C125.704 54.554 125.765 54.2567 125.885 53.9996C126.006 53.7434 126.177 53.546 126.399 53.4086C126.62 53.2711 126.877 53.2023 127.169 53.2023C127.556 53.2023 127.865 53.3103 128.099 53.526C128.332 53.742 128.468 54.0407 128.506 54.4223H128.024C127.982 54.1313 127.892 53.921 127.753 53.7902C127.614 53.6599 127.419 53.5947 127.169 53.5947C126.862 53.5947 126.622 53.7081 126.448 53.9349C126.273 54.1621 126.186 54.4848 126.186 54.9036V55.2562C126.186 55.6518 126.269 55.966 126.434 56.1999C126.599 56.4334 126.83 56.5499 127.127 56.5499C127.393 56.5499 127.598 56.4897 127.74 56.3687C127.883 56.2482 127.977 56.0375 128.024 55.7375H128.506Z" fill="white"/>
<path d="M131.457 53.2524H131.937V56.8924H131.457V54.0876L129.664 56.8924H129.182V53.2524H129.664V56.0576L131.457 53.2524Z" fill="white"/>
<path d="M134.972 52.3447C134.972 52.5474 134.904 52.7099 134.766 52.8326C134.628 52.9558 134.448 53.017 134.225 53.017C134.001 53.017 133.82 52.9554 133.682 52.8317C133.544 52.7076 133.475 52.5456 133.475 52.3447H133.852C133.852 52.4612 133.884 52.5527 133.947 52.6183C134.01 52.6844 134.103 52.717 134.225 52.717C134.341 52.717 134.432 52.6849 134.499 52.6197C134.564 52.5545 134.597 52.463 134.597 52.3447H134.972ZM135.107 53.2522H135.587V56.8927H135.107V54.0875L133.314 56.8927H132.832V53.2522H133.314V56.0575L135.107 53.2522Z" fill="white"/>
<path d="M139.14 55.7375C139.095 56.1223 138.953 56.4196 138.714 56.6289C138.474 56.8379 138.157 56.9423 137.76 56.9423C137.329 56.9423 136.985 56.7883 136.726 56.4798C136.467 56.1718 136.337 55.7589 136.337 55.2424V54.8924C136.337 54.554 136.397 54.2567 136.518 53.9996C136.639 53.7434 136.81 53.546 137.032 53.4086C137.254 53.2711 137.511 53.2023 137.802 53.2023C138.189 53.2023 138.499 53.3103 138.732 53.526C138.965 53.742 139.101 54.0407 139.14 54.4223H138.657C138.616 54.1313 138.525 53.921 138.386 53.7902C138.247 53.6599 138.052 53.5947 137.802 53.5947C137.495 53.5947 137.255 53.7081 137.081 53.9349C136.907 54.1621 136.82 54.4848 136.82 54.9036V55.2562C136.82 55.6518 136.902 55.966 137.067 56.1999C137.233 56.4334 137.463 56.5499 137.76 56.5499C138.026 56.5499 138.231 56.4897 138.374 56.3687C138.516 56.2482 138.61 56.0375 138.657 55.7375H139.14Z" fill="white"/>
<path d="M140.74 55.2575H140.298V56.8927H139.818V53.2522H140.298V54.8575H140.672L141.945 53.2522H142.543L141.152 55.0173L142.645 56.8927H142.057L140.74 55.2575Z" fill="white"/>
<path d="M145.33 54.9549C145.33 54.5232 145.243 54.192 145.07 53.9608C144.897 53.73 144.654 53.6148 144.343 53.6148C144.039 53.6148 143.8 53.73 143.627 53.9608C143.452 54.192 143.363 54.5121 143.357 54.9223V55.1897C143.357 55.608 143.445 55.937 143.621 56.1763C143.797 56.4151 144.039 56.5352 144.347 56.5352C144.657 56.5352 144.897 56.4223 145.068 56.1964C145.238 55.9705 145.325 55.6464 145.33 55.2245V54.9549ZM145.807 55.1897C145.807 55.5464 145.747 55.8575 145.628 56.1236C145.507 56.3897 145.338 56.5923 145.118 56.7325C144.897 56.8722 144.641 56.9423 144.347 56.9423C144.061 56.9423 143.806 56.8718 143.585 56.7312C143.363 56.5906 143.191 56.3897 143.069 56.1285C142.946 55.8678 142.883 55.5656 142.88 55.2223V54.9598C142.88 54.6098 142.94 54.3005 143.062 54.0322C143.184 53.7639 143.356 53.5585 143.579 53.4161C143.801 53.2733 144.056 53.2023 144.343 53.2023C144.634 53.2023 144.892 53.2724 145.114 53.4135C145.336 53.5545 145.507 53.7585 145.628 54.0259C145.747 54.2938 145.807 54.6049 145.807 54.9598V55.1897Z" fill="white"/>
<path d="M148.688 52.3447C148.688 52.5474 148.619 52.7099 148.481 52.8326C148.344 52.9558 148.163 53.017 147.94 53.017C147.717 53.017 147.536 52.9554 147.397 52.8317C147.26 52.7076 147.19 52.5456 147.19 52.3447H147.568C147.568 52.4612 147.599 52.5527 147.663 52.6183C147.726 52.6844 147.818 52.717 147.94 52.717C148.057 52.717 148.148 52.6849 148.214 52.6197C148.28 52.5545 148.313 52.463 148.313 52.3447H148.688ZM148.823 53.2522H149.303V56.8927H148.823V54.0875L147.03 56.8927H146.547V53.2522H147.03V56.0575L148.823 53.2522Z" fill="white"/>
<path d="M153.243 53.9947V56.1723H153.313C153.632 56.1723 153.88 56.0745 154.059 55.8786C154.238 55.6826 154.328 55.4165 154.328 55.0799C154.328 54.7465 154.238 54.4822 154.059 54.2871C153.88 54.0925 153.628 53.9947 153.303 53.9947H153.243ZM152.708 53.9947C152.395 53.9947 152.147 54.0912 151.964 54.2836C151.782 54.476 151.69 54.7434 151.69 55.0849C151.69 55.4281 151.782 55.6955 151.963 55.8862C152.145 56.0772 152.395 56.1723 152.713 56.1723H152.778V53.9947H152.708ZM153.243 53.6171H153.32C153.595 53.6189 153.847 53.6831 154.073 53.8095C154.3 53.9367 154.476 54.1112 154.602 54.3336C154.728 54.5559 154.791 54.8045 154.791 55.0799C154.791 55.3567 154.727 55.6072 154.601 55.8326C154.474 56.0576 154.299 56.233 154.075 56.3585C153.852 56.4848 153.604 56.5491 153.33 56.5522H153.243V57.0424H152.778V56.5522H152.708C152.43 56.5522 152.177 56.4893 151.95 56.3625C151.722 56.2357 151.545 56.0607 151.419 55.8375C151.293 55.6139 151.23 55.363 151.23 55.0849C151.23 54.8063 151.293 54.5554 151.419 54.3322C151.545 54.109 151.722 53.934 151.95 53.8072C152.177 53.6805 152.43 53.6171 152.708 53.6171H152.778V53.1019H153.243V53.6171Z" fill="white"/>
<path d="M157.453 55.2099H155.876V56.5001H157.708V56.8925H155.396V53.2524H157.684V53.6448H155.876V54.8175H157.453V55.2099Z" fill="white"/>
<path d="M158.853 56.4999H160.629V53.6447H159.396L159.344 54.7156C159.322 55.1343 159.266 55.4915 159.178 55.7866C159.088 56.0821 158.98 56.32 158.853 56.4999ZM161.581 57.7851H161.104V56.8923H158.491V57.7874H158.011L158.008 56.4999H158.306C158.463 56.3231 158.587 56.0861 158.68 55.7888C158.772 55.491 158.83 55.1647 158.853 54.8098L158.934 53.2523H161.111V56.4999H161.586L161.581 57.7851Z" fill="white"/>
<path d="M164.214 55.2099H162.636V56.5001H164.469V56.8925H162.156V53.2524H164.444V53.6448H162.636V54.8175H164.214V55.2099Z" fill="white"/>
<path d="M165.546 55.0747H166.409C166.666 55.0747 166.862 55.0145 166.999 54.8931C167.136 54.7721 167.204 54.5971 167.204 54.3685C167.204 54.1516 167.136 53.9779 166.999 53.8476C166.862 53.7172 166.675 53.6498 166.436 53.6444H165.546V55.0747ZM165.546 55.4671V56.8925H165.066V53.2521H166.409C166.807 53.2521 167.119 53.3538 167.345 53.5574C167.571 53.7605 167.684 54.0297 167.684 54.365C167.684 54.7181 167.573 54.9904 167.353 55.181C167.132 55.372 166.816 55.4671 166.404 55.4671H165.546Z" fill="white"/>
<path d="M168.582 55.5474H169.819L169.199 53.8448L168.582 55.5474ZM169.962 55.9398H168.437L168.094 56.8924H167.599L168.989 53.2524H169.409L170.802 56.8924H170.309L169.962 55.9398Z" fill="white"/>
<path d="M171.307 53.2524H171.789V56.5H173.585V53.2524H174.065V56.4897H174.447L174.403 57.77H173.97V56.8924H171.307V53.2524Z" fill="white"/>
<path d="M177.33 53.2524H177.81V56.8924H177.33V54.0876L175.537 56.8924H175.054V53.2524H175.537V56.0576L177.33 53.2524Z" fill="white"/>
<path d="M180.98 53.2524H181.46V56.8924H180.98V54.0876L179.187 56.8924H178.705V53.2524H179.187V56.0576L180.98 53.2524Z" fill="white"/>
<path d="M0 56.6322C14.1471 54.6479 28.3929 48.6379 38.7724 37.1634C37.6662 41.2516 31.6388 51.6695 25.8082 56.6322H0.966921H0Z" fill="white"/>
</svg>
